%TF.GenerationSoftware,KiCad,Pcbnew,8.0.0*%
%TF.CreationDate,2024-03-08T03:35:26+01:00*%
%TF.ProjectId,pd65hotplate_esp32,70643635-686f-4747-906c-6174655f6573,rev?*%
%TF.SameCoordinates,Original*%
%TF.FileFunction,Legend,Top*%
%TF.FilePolarity,Positive*%
%FSLAX46Y46*%
G04 Gerber Fmt 4.6, Leading zero omitted, Abs format (unit mm)*
G04 Created by KiCad (PCBNEW 8.0.0) date 2024-03-08 03:35:26*
%MOMM*%
%LPD*%
G01*
G04 APERTURE LIST*
G04 Aperture macros list*
%AMRoundRect*
0 Rectangle with rounded corners*
0 $1 Rounding radius*
0 $2 $3 $4 $5 $6 $7 $8 $9 X,Y pos of 4 corners*
0 Add a 4 corners polygon primitive as box body*
4,1,4,$2,$3,$4,$5,$6,$7,$8,$9,$2,$3,0*
0 Add four circle primitives for the rounded corners*
1,1,$1+$1,$2,$3*
1,1,$1+$1,$4,$5*
1,1,$1+$1,$6,$7*
1,1,$1+$1,$8,$9*
0 Add four rect primitives between the rounded corners*
20,1,$1+$1,$2,$3,$4,$5,0*
20,1,$1+$1,$4,$5,$6,$7,0*
20,1,$1+$1,$6,$7,$8,$9,0*
20,1,$1+$1,$8,$9,$2,$3,0*%
G04 Aperture macros list end*
%ADD10C,0.150000*%
%ADD11C,0.254000*%
%ADD12C,0.120000*%
%ADD13C,0.250000*%
%ADD14C,0.200000*%
%ADD15C,0.100000*%
%ADD16RoundRect,0.237500X-0.250000X-0.237500X0.250000X-0.237500X0.250000X0.237500X-0.250000X0.237500X0*%
%ADD17R,0.570000X0.540000*%
%ADD18RoundRect,0.250000X-0.337500X-0.475000X0.337500X-0.475000X0.337500X0.475000X-0.337500X0.475000X0*%
%ADD19RoundRect,0.237500X-0.300000X-0.237500X0.300000X-0.237500X0.300000X0.237500X-0.300000X0.237500X0*%
%ADD20R,0.300000X1.150000*%
%ADD21O,1.000000X1.800000*%
%ADD22O,1.000000X2.100000*%
%ADD23C,0.650000*%
%ADD24R,0.280000X0.660000*%
%ADD25R,0.660000X0.280000*%
%ADD26R,1.750000X1.750000*%
%ADD27R,2.500000X1.500000*%
%ADD28O,0.280000X0.700000*%
%ADD29O,0.700000X0.280000*%
%ADD30R,2.800000X2.800000*%
%ADD31R,1.500000X0.900000*%
%ADD32R,0.900000X1.500000*%
%ADD33R,0.900000X0.900000*%
%ADD34C,0.400000*%
%ADD35R,3.000000X3.000000*%
%ADD36R,1.525000X0.650000*%
%ADD37R,2.400000X3.100000*%
%ADD38R,0.500000X0.600000*%
%ADD39R,2.700000X1.630000*%
%ADD40R,0.540000X0.790000*%
%ADD41R,0.800000X0.900000*%
%ADD42RoundRect,0.250000X0.650000X-0.325000X0.650000X0.325000X-0.650000X0.325000X-0.650000X-0.325000X0*%
G04 APERTURE END LIST*
D10*
X105236666Y-75024819D02*
X104903333Y-74548628D01*
X104665238Y-75024819D02*
X104665238Y-74024819D01*
X104665238Y-74024819D02*
X105046190Y-74024819D01*
X105046190Y-74024819D02*
X105141428Y-74072438D01*
X105141428Y-74072438D02*
X105189047Y-74120057D01*
X105189047Y-74120057D02*
X105236666Y-74215295D01*
X105236666Y-74215295D02*
X105236666Y-74358152D01*
X105236666Y-74358152D02*
X105189047Y-74453390D01*
X105189047Y-74453390D02*
X105141428Y-74501009D01*
X105141428Y-74501009D02*
X105046190Y-74548628D01*
X105046190Y-74548628D02*
X104665238Y-74548628D01*
X106046190Y-74977200D02*
X105950952Y-75024819D01*
X105950952Y-75024819D02*
X105760476Y-75024819D01*
X105760476Y-75024819D02*
X105665238Y-74977200D01*
X105665238Y-74977200D02*
X105617619Y-74881961D01*
X105617619Y-74881961D02*
X105617619Y-74501009D01*
X105617619Y-74501009D02*
X105665238Y-74405771D01*
X105665238Y-74405771D02*
X105760476Y-74358152D01*
X105760476Y-74358152D02*
X105950952Y-74358152D01*
X105950952Y-74358152D02*
X106046190Y-74405771D01*
X106046190Y-74405771D02*
X106093809Y-74501009D01*
X106093809Y-74501009D02*
X106093809Y-74596247D01*
X106093809Y-74596247D02*
X105617619Y-74691485D01*
X106522381Y-74358152D02*
X106522381Y-75024819D01*
X106522381Y-74453390D02*
X106570000Y-74405771D01*
X106570000Y-74405771D02*
X106665238Y-74358152D01*
X106665238Y-74358152D02*
X106808095Y-74358152D01*
X106808095Y-74358152D02*
X106903333Y-74405771D01*
X106903333Y-74405771D02*
X106950952Y-74501009D01*
X106950952Y-74501009D02*
X106950952Y-75024819D01*
X107284286Y-74358152D02*
X107665238Y-74358152D01*
X107427143Y-74024819D02*
X107427143Y-74881961D01*
X107427143Y-74881961D02*
X107474762Y-74977200D01*
X107474762Y-74977200D02*
X107570000Y-75024819D01*
X107570000Y-75024819D02*
X107665238Y-75024819D01*
X108522381Y-75024819D02*
X107950953Y-75024819D01*
X108236667Y-75024819D02*
X108236667Y-74024819D01*
X108236667Y-74024819D02*
X108141429Y-74167676D01*
X108141429Y-74167676D02*
X108046191Y-74262914D01*
X108046191Y-74262914D02*
X107950953Y-74310533D01*
X108999999Y-77454819D02*
X108666666Y-76978628D01*
X108428571Y-77454819D02*
X108428571Y-76454819D01*
X108428571Y-76454819D02*
X108809523Y-76454819D01*
X108809523Y-76454819D02*
X108904761Y-76502438D01*
X108904761Y-76502438D02*
X108952380Y-76550057D01*
X108952380Y-76550057D02*
X108999999Y-76645295D01*
X108999999Y-76645295D02*
X108999999Y-76788152D01*
X108999999Y-76788152D02*
X108952380Y-76883390D01*
X108952380Y-76883390D02*
X108904761Y-76931009D01*
X108904761Y-76931009D02*
X108809523Y-76978628D01*
X108809523Y-76978628D02*
X108428571Y-76978628D01*
X109809523Y-77407200D02*
X109714285Y-77454819D01*
X109714285Y-77454819D02*
X109523809Y-77454819D01*
X109523809Y-77454819D02*
X109428571Y-77407200D01*
X109428571Y-77407200D02*
X109380952Y-77311961D01*
X109380952Y-77311961D02*
X109380952Y-76931009D01*
X109380952Y-76931009D02*
X109428571Y-76835771D01*
X109428571Y-76835771D02*
X109523809Y-76788152D01*
X109523809Y-76788152D02*
X109714285Y-76788152D01*
X109714285Y-76788152D02*
X109809523Y-76835771D01*
X109809523Y-76835771D02*
X109857142Y-76931009D01*
X109857142Y-76931009D02*
X109857142Y-77026247D01*
X109857142Y-77026247D02*
X109380952Y-77121485D01*
X110285714Y-76788152D02*
X110285714Y-77454819D01*
X110285714Y-76883390D02*
X110333333Y-76835771D01*
X110333333Y-76835771D02*
X110428571Y-76788152D01*
X110428571Y-76788152D02*
X110571428Y-76788152D01*
X110571428Y-76788152D02*
X110666666Y-76835771D01*
X110666666Y-76835771D02*
X110714285Y-76931009D01*
X110714285Y-76931009D02*
X110714285Y-77454819D01*
X111190476Y-77454819D02*
X111190476Y-76454819D01*
X111190476Y-76835771D02*
X111285714Y-76788152D01*
X111285714Y-76788152D02*
X111476190Y-76788152D01*
X111476190Y-76788152D02*
X111571428Y-76835771D01*
X111571428Y-76835771D02*
X111619047Y-76883390D01*
X111619047Y-76883390D02*
X111666666Y-76978628D01*
X111666666Y-76978628D02*
X111666666Y-77264342D01*
X111666666Y-77264342D02*
X111619047Y-77359580D01*
X111619047Y-77359580D02*
X111571428Y-77407200D01*
X111571428Y-77407200D02*
X111476190Y-77454819D01*
X111476190Y-77454819D02*
X111285714Y-77454819D01*
X111285714Y-77454819D02*
X111190476Y-77407200D01*
X112619047Y-77454819D02*
X112047619Y-77454819D01*
X112333333Y-77454819D02*
X112333333Y-76454819D01*
X112333333Y-76454819D02*
X112238095Y-76597676D01*
X112238095Y-76597676D02*
X112142857Y-76692914D01*
X112142857Y-76692914D02*
X112047619Y-76740533D01*
X81920833Y-87024819D02*
X81587500Y-86548628D01*
X81349405Y-87024819D02*
X81349405Y-86024819D01*
X81349405Y-86024819D02*
X81730357Y-86024819D01*
X81730357Y-86024819D02*
X81825595Y-86072438D01*
X81825595Y-86072438D02*
X81873214Y-86120057D01*
X81873214Y-86120057D02*
X81920833Y-86215295D01*
X81920833Y-86215295D02*
X81920833Y-86358152D01*
X81920833Y-86358152D02*
X81873214Y-86453390D01*
X81873214Y-86453390D02*
X81825595Y-86501009D01*
X81825595Y-86501009D02*
X81730357Y-86548628D01*
X81730357Y-86548628D02*
X81349405Y-86548628D01*
X82873214Y-87024819D02*
X82301786Y-87024819D01*
X82587500Y-87024819D02*
X82587500Y-86024819D01*
X82587500Y-86024819D02*
X82492262Y-86167676D01*
X82492262Y-86167676D02*
X82397024Y-86262914D01*
X82397024Y-86262914D02*
X82301786Y-86310533D01*
X114833333Y-77179580D02*
X114785714Y-77227200D01*
X114785714Y-77227200D02*
X114642857Y-77274819D01*
X114642857Y-77274819D02*
X114547619Y-77274819D01*
X114547619Y-77274819D02*
X114404762Y-77227200D01*
X114404762Y-77227200D02*
X114309524Y-77131961D01*
X114309524Y-77131961D02*
X114261905Y-77036723D01*
X114261905Y-77036723D02*
X114214286Y-76846247D01*
X114214286Y-76846247D02*
X114214286Y-76703390D01*
X114214286Y-76703390D02*
X114261905Y-76512914D01*
X114261905Y-76512914D02*
X114309524Y-76417676D01*
X114309524Y-76417676D02*
X114404762Y-76322438D01*
X114404762Y-76322438D02*
X114547619Y-76274819D01*
X114547619Y-76274819D02*
X114642857Y-76274819D01*
X114642857Y-76274819D02*
X114785714Y-76322438D01*
X114785714Y-76322438D02*
X114833333Y-76370057D01*
X115166667Y-76274819D02*
X115833333Y-76274819D01*
X115833333Y-76274819D02*
X115404762Y-77274819D01*
X81920833Y-84419580D02*
X81873214Y-84467200D01*
X81873214Y-84467200D02*
X81730357Y-84514819D01*
X81730357Y-84514819D02*
X81635119Y-84514819D01*
X81635119Y-84514819D02*
X81492262Y-84467200D01*
X81492262Y-84467200D02*
X81397024Y-84371961D01*
X81397024Y-84371961D02*
X81349405Y-84276723D01*
X81349405Y-84276723D02*
X81301786Y-84086247D01*
X81301786Y-84086247D02*
X81301786Y-83943390D01*
X81301786Y-83943390D02*
X81349405Y-83752914D01*
X81349405Y-83752914D02*
X81397024Y-83657676D01*
X81397024Y-83657676D02*
X81492262Y-83562438D01*
X81492262Y-83562438D02*
X81635119Y-83514819D01*
X81635119Y-83514819D02*
X81730357Y-83514819D01*
X81730357Y-83514819D02*
X81873214Y-83562438D01*
X81873214Y-83562438D02*
X81920833Y-83610057D01*
X82254167Y-83514819D02*
X82873214Y-83514819D01*
X82873214Y-83514819D02*
X82539881Y-83895771D01*
X82539881Y-83895771D02*
X82682738Y-83895771D01*
X82682738Y-83895771D02*
X82777976Y-83943390D01*
X82777976Y-83943390D02*
X82825595Y-83991009D01*
X82825595Y-83991009D02*
X82873214Y-84086247D01*
X82873214Y-84086247D02*
X82873214Y-84324342D01*
X82873214Y-84324342D02*
X82825595Y-84419580D01*
X82825595Y-84419580D02*
X82777976Y-84467200D01*
X82777976Y-84467200D02*
X82682738Y-84514819D01*
X82682738Y-84514819D02*
X82397024Y-84514819D01*
X82397024Y-84514819D02*
X82301786Y-84467200D01*
X82301786Y-84467200D02*
X82254167Y-84419580D01*
X50161905Y-46549819D02*
X50161905Y-47359342D01*
X50161905Y-47359342D02*
X50209524Y-47454580D01*
X50209524Y-47454580D02*
X50257143Y-47502200D01*
X50257143Y-47502200D02*
X50352381Y-47549819D01*
X50352381Y-47549819D02*
X50542857Y-47549819D01*
X50542857Y-47549819D02*
X50638095Y-47502200D01*
X50638095Y-47502200D02*
X50685714Y-47454580D01*
X50685714Y-47454580D02*
X50733333Y-47359342D01*
X50733333Y-47359342D02*
X50733333Y-46549819D01*
X51161905Y-47502200D02*
X51304762Y-47549819D01*
X51304762Y-47549819D02*
X51542857Y-47549819D01*
X51542857Y-47549819D02*
X51638095Y-47502200D01*
X51638095Y-47502200D02*
X51685714Y-47454580D01*
X51685714Y-47454580D02*
X51733333Y-47359342D01*
X51733333Y-47359342D02*
X51733333Y-47264104D01*
X51733333Y-47264104D02*
X51685714Y-47168866D01*
X51685714Y-47168866D02*
X51638095Y-47121247D01*
X51638095Y-47121247D02*
X51542857Y-47073628D01*
X51542857Y-47073628D02*
X51352381Y-47026009D01*
X51352381Y-47026009D02*
X51257143Y-46978390D01*
X51257143Y-46978390D02*
X51209524Y-46930771D01*
X51209524Y-46930771D02*
X51161905Y-46835533D01*
X51161905Y-46835533D02*
X51161905Y-46740295D01*
X51161905Y-46740295D02*
X51209524Y-46645057D01*
X51209524Y-46645057D02*
X51257143Y-46597438D01*
X51257143Y-46597438D02*
X51352381Y-46549819D01*
X51352381Y-46549819D02*
X51590476Y-46549819D01*
X51590476Y-46549819D02*
X51733333Y-46597438D01*
X52495238Y-47026009D02*
X52638095Y-47073628D01*
X52638095Y-47073628D02*
X52685714Y-47121247D01*
X52685714Y-47121247D02*
X52733333Y-47216485D01*
X52733333Y-47216485D02*
X52733333Y-47359342D01*
X52733333Y-47359342D02*
X52685714Y-47454580D01*
X52685714Y-47454580D02*
X52638095Y-47502200D01*
X52638095Y-47502200D02*
X52542857Y-47549819D01*
X52542857Y-47549819D02*
X52161905Y-47549819D01*
X52161905Y-47549819D02*
X52161905Y-46549819D01*
X52161905Y-46549819D02*
X52495238Y-46549819D01*
X52495238Y-46549819D02*
X52590476Y-46597438D01*
X52590476Y-46597438D02*
X52638095Y-46645057D01*
X52638095Y-46645057D02*
X52685714Y-46740295D01*
X52685714Y-46740295D02*
X52685714Y-46835533D01*
X52685714Y-46835533D02*
X52638095Y-46930771D01*
X52638095Y-46930771D02*
X52590476Y-46978390D01*
X52590476Y-46978390D02*
X52495238Y-47026009D01*
X52495238Y-47026009D02*
X52161905Y-47026009D01*
X53685714Y-47549819D02*
X53114286Y-47549819D01*
X53400000Y-47549819D02*
X53400000Y-46549819D01*
X53400000Y-46549819D02*
X53304762Y-46692676D01*
X53304762Y-46692676D02*
X53209524Y-46787914D01*
X53209524Y-46787914D02*
X53114286Y-46835533D01*
X54328095Y-38294819D02*
X54328095Y-39104342D01*
X54328095Y-39104342D02*
X54375714Y-39199580D01*
X54375714Y-39199580D02*
X54423333Y-39247200D01*
X54423333Y-39247200D02*
X54518571Y-39294819D01*
X54518571Y-39294819D02*
X54709047Y-39294819D01*
X54709047Y-39294819D02*
X54804285Y-39247200D01*
X54804285Y-39247200D02*
X54851904Y-39199580D01*
X54851904Y-39199580D02*
X54899523Y-39104342D01*
X54899523Y-39104342D02*
X54899523Y-38294819D01*
X55804285Y-38294819D02*
X55613809Y-38294819D01*
X55613809Y-38294819D02*
X55518571Y-38342438D01*
X55518571Y-38342438D02*
X55470952Y-38390057D01*
X55470952Y-38390057D02*
X55375714Y-38532914D01*
X55375714Y-38532914D02*
X55328095Y-38723390D01*
X55328095Y-38723390D02*
X55328095Y-39104342D01*
X55328095Y-39104342D02*
X55375714Y-39199580D01*
X55375714Y-39199580D02*
X55423333Y-39247200D01*
X55423333Y-39247200D02*
X55518571Y-39294819D01*
X55518571Y-39294819D02*
X55709047Y-39294819D01*
X55709047Y-39294819D02*
X55804285Y-39247200D01*
X55804285Y-39247200D02*
X55851904Y-39199580D01*
X55851904Y-39199580D02*
X55899523Y-39104342D01*
X55899523Y-39104342D02*
X55899523Y-38866247D01*
X55899523Y-38866247D02*
X55851904Y-38771009D01*
X55851904Y-38771009D02*
X55804285Y-38723390D01*
X55804285Y-38723390D02*
X55709047Y-38675771D01*
X55709047Y-38675771D02*
X55518571Y-38675771D01*
X55518571Y-38675771D02*
X55423333Y-38723390D01*
X55423333Y-38723390D02*
X55375714Y-38771009D01*
X55375714Y-38771009D02*
X55328095Y-38866247D01*
X54233095Y-33374819D02*
X54233095Y-34184342D01*
X54233095Y-34184342D02*
X54280714Y-34279580D01*
X54280714Y-34279580D02*
X54328333Y-34327200D01*
X54328333Y-34327200D02*
X54423571Y-34374819D01*
X54423571Y-34374819D02*
X54614047Y-34374819D01*
X54614047Y-34374819D02*
X54709285Y-34327200D01*
X54709285Y-34327200D02*
X54756904Y-34279580D01*
X54756904Y-34279580D02*
X54804523Y-34184342D01*
X54804523Y-34184342D02*
X54804523Y-33374819D01*
X55709285Y-33708152D02*
X55709285Y-34374819D01*
X55471190Y-33327200D02*
X55233095Y-34041485D01*
X55233095Y-34041485D02*
X55852142Y-34041485D01*
X42428095Y-54504819D02*
X42428095Y-55314342D01*
X42428095Y-55314342D02*
X42475714Y-55409580D01*
X42475714Y-55409580D02*
X42523333Y-55457200D01*
X42523333Y-55457200D02*
X42618571Y-55504819D01*
X42618571Y-55504819D02*
X42809047Y-55504819D01*
X42809047Y-55504819D02*
X42904285Y-55457200D01*
X42904285Y-55457200D02*
X42951904Y-55409580D01*
X42951904Y-55409580D02*
X42999523Y-55314342D01*
X42999523Y-55314342D02*
X42999523Y-54504819D01*
X43380476Y-54504819D02*
X43999523Y-54504819D01*
X43999523Y-54504819D02*
X43666190Y-54885771D01*
X43666190Y-54885771D02*
X43809047Y-54885771D01*
X43809047Y-54885771D02*
X43904285Y-54933390D01*
X43904285Y-54933390D02*
X43951904Y-54981009D01*
X43951904Y-54981009D02*
X43999523Y-55076247D01*
X43999523Y-55076247D02*
X43999523Y-55314342D01*
X43999523Y-55314342D02*
X43951904Y-55409580D01*
X43951904Y-55409580D02*
X43904285Y-55457200D01*
X43904285Y-55457200D02*
X43809047Y-55504819D01*
X43809047Y-55504819D02*
X43523333Y-55504819D01*
X43523333Y-55504819D02*
X43428095Y-55457200D01*
X43428095Y-55457200D02*
X43380476Y-55409580D01*
X35823095Y-34629819D02*
X35823095Y-35439342D01*
X35823095Y-35439342D02*
X35870714Y-35534580D01*
X35870714Y-35534580D02*
X35918333Y-35582200D01*
X35918333Y-35582200D02*
X36013571Y-35629819D01*
X36013571Y-35629819D02*
X36204047Y-35629819D01*
X36204047Y-35629819D02*
X36299285Y-35582200D01*
X36299285Y-35582200D02*
X36346904Y-35534580D01*
X36346904Y-35534580D02*
X36394523Y-35439342D01*
X36394523Y-35439342D02*
X36394523Y-34629819D01*
X36823095Y-34725057D02*
X36870714Y-34677438D01*
X36870714Y-34677438D02*
X36965952Y-34629819D01*
X36965952Y-34629819D02*
X37204047Y-34629819D01*
X37204047Y-34629819D02*
X37299285Y-34677438D01*
X37299285Y-34677438D02*
X37346904Y-34725057D01*
X37346904Y-34725057D02*
X37394523Y-34820295D01*
X37394523Y-34820295D02*
X37394523Y-34915533D01*
X37394523Y-34915533D02*
X37346904Y-35058390D01*
X37346904Y-35058390D02*
X36775476Y-35629819D01*
X36775476Y-35629819D02*
X37394523Y-35629819D01*
X116212856Y-71954819D02*
X115879523Y-71478628D01*
X115641428Y-71954819D02*
X115641428Y-70954819D01*
X115641428Y-70954819D02*
X116022380Y-70954819D01*
X116022380Y-70954819D02*
X116117618Y-71002438D01*
X116117618Y-71002438D02*
X116165237Y-71050057D01*
X116165237Y-71050057D02*
X116212856Y-71145295D01*
X116212856Y-71145295D02*
X116212856Y-71288152D01*
X116212856Y-71288152D02*
X116165237Y-71383390D01*
X116165237Y-71383390D02*
X116117618Y-71431009D01*
X116117618Y-71431009D02*
X116022380Y-71478628D01*
X116022380Y-71478628D02*
X115641428Y-71478628D01*
X116498571Y-71288152D02*
X116879523Y-71288152D01*
X116641428Y-70954819D02*
X116641428Y-71811961D01*
X116641428Y-71811961D02*
X116689047Y-71907200D01*
X116689047Y-71907200D02*
X116784285Y-71954819D01*
X116784285Y-71954819D02*
X116879523Y-71954819D01*
X117212857Y-71954819D02*
X117212857Y-70954819D01*
X117212857Y-71335771D02*
X117308095Y-71288152D01*
X117308095Y-71288152D02*
X117498571Y-71288152D01*
X117498571Y-71288152D02*
X117593809Y-71335771D01*
X117593809Y-71335771D02*
X117641428Y-71383390D01*
X117641428Y-71383390D02*
X117689047Y-71478628D01*
X117689047Y-71478628D02*
X117689047Y-71764342D01*
X117689047Y-71764342D02*
X117641428Y-71859580D01*
X117641428Y-71859580D02*
X117593809Y-71907200D01*
X117593809Y-71907200D02*
X117498571Y-71954819D01*
X117498571Y-71954819D02*
X117308095Y-71954819D01*
X117308095Y-71954819D02*
X117212857Y-71907200D01*
X118117619Y-71954819D02*
X118117619Y-70954819D01*
X118117619Y-71335771D02*
X118212857Y-71288152D01*
X118212857Y-71288152D02*
X118403333Y-71288152D01*
X118403333Y-71288152D02*
X118498571Y-71335771D01*
X118498571Y-71335771D02*
X118546190Y-71383390D01*
X118546190Y-71383390D02*
X118593809Y-71478628D01*
X118593809Y-71478628D02*
X118593809Y-71764342D01*
X118593809Y-71764342D02*
X118546190Y-71859580D01*
X118546190Y-71859580D02*
X118498571Y-71907200D01*
X118498571Y-71907200D02*
X118403333Y-71954819D01*
X118403333Y-71954819D02*
X118212857Y-71954819D01*
X118212857Y-71954819D02*
X118117619Y-71907200D01*
X119546190Y-71954819D02*
X118974762Y-71954819D01*
X119260476Y-71954819D02*
X119260476Y-70954819D01*
X119260476Y-70954819D02*
X119165238Y-71097676D01*
X119165238Y-71097676D02*
X119070000Y-71192914D01*
X119070000Y-71192914D02*
X118974762Y-71240533D01*
X111379523Y-74954819D02*
X111046190Y-74478628D01*
X110808095Y-74954819D02*
X110808095Y-73954819D01*
X110808095Y-73954819D02*
X111189047Y-73954819D01*
X111189047Y-73954819D02*
X111284285Y-74002438D01*
X111284285Y-74002438D02*
X111331904Y-74050057D01*
X111331904Y-74050057D02*
X111379523Y-74145295D01*
X111379523Y-74145295D02*
X111379523Y-74288152D01*
X111379523Y-74288152D02*
X111331904Y-74383390D01*
X111331904Y-74383390D02*
X111284285Y-74431009D01*
X111284285Y-74431009D02*
X111189047Y-74478628D01*
X111189047Y-74478628D02*
X110808095Y-74478628D01*
X111665238Y-74288152D02*
X112046190Y-74288152D01*
X111808095Y-73954819D02*
X111808095Y-74811961D01*
X111808095Y-74811961D02*
X111855714Y-74907200D01*
X111855714Y-74907200D02*
X111950952Y-74954819D01*
X111950952Y-74954819D02*
X112046190Y-74954819D01*
X112236667Y-74288152D02*
X112617619Y-74288152D01*
X112379524Y-74954819D02*
X112379524Y-74097676D01*
X112379524Y-74097676D02*
X112427143Y-74002438D01*
X112427143Y-74002438D02*
X112522381Y-73954819D01*
X112522381Y-73954819D02*
X112617619Y-73954819D01*
X112950953Y-74954819D02*
X112950953Y-73954819D01*
X112950953Y-74335771D02*
X113046191Y-74288152D01*
X113046191Y-74288152D02*
X113236667Y-74288152D01*
X113236667Y-74288152D02*
X113331905Y-74335771D01*
X113331905Y-74335771D02*
X113379524Y-74383390D01*
X113379524Y-74383390D02*
X113427143Y-74478628D01*
X113427143Y-74478628D02*
X113427143Y-74764342D01*
X113427143Y-74764342D02*
X113379524Y-74859580D01*
X113379524Y-74859580D02*
X113331905Y-74907200D01*
X113331905Y-74907200D02*
X113236667Y-74954819D01*
X113236667Y-74954819D02*
X113046191Y-74954819D01*
X113046191Y-74954819D02*
X112950953Y-74907200D01*
X114379524Y-74954819D02*
X113808096Y-74954819D01*
X114093810Y-74954819D02*
X114093810Y-73954819D01*
X114093810Y-73954819D02*
X113998572Y-74097676D01*
X113998572Y-74097676D02*
X113903334Y-74192914D01*
X113903334Y-74192914D02*
X113808096Y-74240533D01*
X109428571Y-80454819D02*
X109095238Y-79978628D01*
X108857143Y-80454819D02*
X108857143Y-79454819D01*
X108857143Y-79454819D02*
X109238095Y-79454819D01*
X109238095Y-79454819D02*
X109333333Y-79502438D01*
X109333333Y-79502438D02*
X109380952Y-79550057D01*
X109380952Y-79550057D02*
X109428571Y-79645295D01*
X109428571Y-79645295D02*
X109428571Y-79788152D01*
X109428571Y-79788152D02*
X109380952Y-79883390D01*
X109380952Y-79883390D02*
X109333333Y-79931009D01*
X109333333Y-79931009D02*
X109238095Y-79978628D01*
X109238095Y-79978628D02*
X108857143Y-79978628D01*
X109857143Y-79788152D02*
X109857143Y-80788152D01*
X109857143Y-79835771D02*
X109952381Y-79788152D01*
X109952381Y-79788152D02*
X110142857Y-79788152D01*
X110142857Y-79788152D02*
X110238095Y-79835771D01*
X110238095Y-79835771D02*
X110285714Y-79883390D01*
X110285714Y-79883390D02*
X110333333Y-79978628D01*
X110333333Y-79978628D02*
X110333333Y-80264342D01*
X110333333Y-80264342D02*
X110285714Y-80359580D01*
X110285714Y-80359580D02*
X110238095Y-80407200D01*
X110238095Y-80407200D02*
X110142857Y-80454819D01*
X110142857Y-80454819D02*
X109952381Y-80454819D01*
X109952381Y-80454819D02*
X109857143Y-80407200D01*
X111190476Y-79788152D02*
X111190476Y-80597676D01*
X111190476Y-80597676D02*
X111142857Y-80692914D01*
X111142857Y-80692914D02*
X111095238Y-80740533D01*
X111095238Y-80740533D02*
X111000000Y-80788152D01*
X111000000Y-80788152D02*
X110857143Y-80788152D01*
X110857143Y-80788152D02*
X110761905Y-80740533D01*
X111190476Y-80407200D02*
X111095238Y-80454819D01*
X111095238Y-80454819D02*
X110904762Y-80454819D01*
X110904762Y-80454819D02*
X110809524Y-80407200D01*
X110809524Y-80407200D02*
X110761905Y-80359580D01*
X110761905Y-80359580D02*
X110714286Y-80264342D01*
X110714286Y-80264342D02*
X110714286Y-79978628D01*
X110714286Y-79978628D02*
X110761905Y-79883390D01*
X110761905Y-79883390D02*
X110809524Y-79835771D01*
X110809524Y-79835771D02*
X110904762Y-79788152D01*
X110904762Y-79788152D02*
X111095238Y-79788152D01*
X111095238Y-79788152D02*
X111190476Y-79835771D01*
X112190476Y-80454819D02*
X111619048Y-80454819D01*
X111904762Y-80454819D02*
X111904762Y-79454819D01*
X111904762Y-79454819D02*
X111809524Y-79597676D01*
X111809524Y-79597676D02*
X111714286Y-79692914D01*
X111714286Y-79692914D02*
X111619048Y-79740533D01*
X110333333Y-58454819D02*
X109857143Y-58454819D01*
X109857143Y-58454819D02*
X109857143Y-57454819D01*
X110619048Y-57550057D02*
X110666667Y-57502438D01*
X110666667Y-57502438D02*
X110761905Y-57454819D01*
X110761905Y-57454819D02*
X111000000Y-57454819D01*
X111000000Y-57454819D02*
X111095238Y-57502438D01*
X111095238Y-57502438D02*
X111142857Y-57550057D01*
X111142857Y-57550057D02*
X111190476Y-57645295D01*
X111190476Y-57645295D02*
X111190476Y-57740533D01*
X111190476Y-57740533D02*
X111142857Y-57883390D01*
X111142857Y-57883390D02*
X110571429Y-58454819D01*
X110571429Y-58454819D02*
X111190476Y-58454819D01*
D11*
X109760237Y-72074318D02*
X109760237Y-70804318D01*
X111090714Y-71953365D02*
X111030238Y-72013842D01*
X111030238Y-72013842D02*
X110848809Y-72074318D01*
X110848809Y-72074318D02*
X110727857Y-72074318D01*
X110727857Y-72074318D02*
X110546428Y-72013842D01*
X110546428Y-72013842D02*
X110425476Y-71892889D01*
X110425476Y-71892889D02*
X110364999Y-71771937D01*
X110364999Y-71771937D02*
X110304523Y-71530032D01*
X110304523Y-71530032D02*
X110304523Y-71348603D01*
X110304523Y-71348603D02*
X110364999Y-71106699D01*
X110364999Y-71106699D02*
X110425476Y-70985746D01*
X110425476Y-70985746D02*
X110546428Y-70864794D01*
X110546428Y-70864794D02*
X110727857Y-70804318D01*
X110727857Y-70804318D02*
X110848809Y-70804318D01*
X110848809Y-70804318D02*
X111030238Y-70864794D01*
X111030238Y-70864794D02*
X111090714Y-70925270D01*
X112300238Y-72074318D02*
X111574523Y-72074318D01*
X111937380Y-72074318D02*
X111937380Y-70804318D01*
X111937380Y-70804318D02*
X111816428Y-70985746D01*
X111816428Y-70985746D02*
X111695476Y-71106699D01*
X111695476Y-71106699D02*
X111574523Y-71167175D01*
D10*
X47291905Y-63114819D02*
X47291905Y-62114819D01*
X47291905Y-62114819D02*
X47530000Y-62114819D01*
X47530000Y-62114819D02*
X47672857Y-62162438D01*
X47672857Y-62162438D02*
X47768095Y-62257676D01*
X47768095Y-62257676D02*
X47815714Y-62352914D01*
X47815714Y-62352914D02*
X47863333Y-62543390D01*
X47863333Y-62543390D02*
X47863333Y-62686247D01*
X47863333Y-62686247D02*
X47815714Y-62876723D01*
X47815714Y-62876723D02*
X47768095Y-62971961D01*
X47768095Y-62971961D02*
X47672857Y-63067200D01*
X47672857Y-63067200D02*
X47530000Y-63114819D01*
X47530000Y-63114819D02*
X47291905Y-63114819D01*
X48815714Y-63114819D02*
X48244286Y-63114819D01*
X48530000Y-63114819D02*
X48530000Y-62114819D01*
X48530000Y-62114819D02*
X48434762Y-62257676D01*
X48434762Y-62257676D02*
X48339524Y-62352914D01*
X48339524Y-62352914D02*
X48244286Y-62400533D01*
X89359580Y-67857143D02*
X89407200Y-67904762D01*
X89407200Y-67904762D02*
X89454819Y-68047619D01*
X89454819Y-68047619D02*
X89454819Y-68142857D01*
X89454819Y-68142857D02*
X89407200Y-68285714D01*
X89407200Y-68285714D02*
X89311961Y-68380952D01*
X89311961Y-68380952D02*
X89216723Y-68428571D01*
X89216723Y-68428571D02*
X89026247Y-68476190D01*
X89026247Y-68476190D02*
X88883390Y-68476190D01*
X88883390Y-68476190D02*
X88692914Y-68428571D01*
X88692914Y-68428571D02*
X88597676Y-68380952D01*
X88597676Y-68380952D02*
X88502438Y-68285714D01*
X88502438Y-68285714D02*
X88454819Y-68142857D01*
X88454819Y-68142857D02*
X88454819Y-68047619D01*
X88454819Y-68047619D02*
X88502438Y-67904762D01*
X88502438Y-67904762D02*
X88550057Y-67857143D01*
X89454819Y-67285714D02*
X89407200Y-67380952D01*
X89407200Y-67380952D02*
X89359580Y-67428571D01*
X89359580Y-67428571D02*
X89264342Y-67476190D01*
X89264342Y-67476190D02*
X88978628Y-67476190D01*
X88978628Y-67476190D02*
X88883390Y-67428571D01*
X88883390Y-67428571D02*
X88835771Y-67380952D01*
X88835771Y-67380952D02*
X88788152Y-67285714D01*
X88788152Y-67285714D02*
X88788152Y-67142857D01*
X88788152Y-67142857D02*
X88835771Y-67047619D01*
X88835771Y-67047619D02*
X88883390Y-67000000D01*
X88883390Y-67000000D02*
X88978628Y-66952381D01*
X88978628Y-66952381D02*
X89264342Y-66952381D01*
X89264342Y-66952381D02*
X89359580Y-67000000D01*
X89359580Y-67000000D02*
X89407200Y-67047619D01*
X89407200Y-67047619D02*
X89454819Y-67142857D01*
X89454819Y-67142857D02*
X89454819Y-67285714D01*
X88788152Y-66095238D02*
X89454819Y-66095238D01*
X88788152Y-66523809D02*
X89311961Y-66523809D01*
X89311961Y-66523809D02*
X89407200Y-66476190D01*
X89407200Y-66476190D02*
X89454819Y-66380952D01*
X89454819Y-66380952D02*
X89454819Y-66238095D01*
X89454819Y-66238095D02*
X89407200Y-66142857D01*
X89407200Y-66142857D02*
X89359580Y-66095238D01*
X88788152Y-65761904D02*
X88788152Y-65380952D01*
X88454819Y-65619047D02*
X89311961Y-65619047D01*
X89311961Y-65619047D02*
X89407200Y-65571428D01*
X89407200Y-65571428D02*
X89454819Y-65476190D01*
X89454819Y-65476190D02*
X89454819Y-65380952D01*
X88550057Y-65095237D02*
X88502438Y-65047618D01*
X88502438Y-65047618D02*
X88454819Y-64952380D01*
X88454819Y-64952380D02*
X88454819Y-64714285D01*
X88454819Y-64714285D02*
X88502438Y-64619047D01*
X88502438Y-64619047D02*
X88550057Y-64571428D01*
X88550057Y-64571428D02*
X88645295Y-64523809D01*
X88645295Y-64523809D02*
X88740533Y-64523809D01*
X88740533Y-64523809D02*
X88883390Y-64571428D01*
X88883390Y-64571428D02*
X89454819Y-65142856D01*
X89454819Y-65142856D02*
X89454819Y-64523809D01*
X95359580Y-67857143D02*
X95407200Y-67904762D01*
X95407200Y-67904762D02*
X95454819Y-68047619D01*
X95454819Y-68047619D02*
X95454819Y-68142857D01*
X95454819Y-68142857D02*
X95407200Y-68285714D01*
X95407200Y-68285714D02*
X95311961Y-68380952D01*
X95311961Y-68380952D02*
X95216723Y-68428571D01*
X95216723Y-68428571D02*
X95026247Y-68476190D01*
X95026247Y-68476190D02*
X94883390Y-68476190D01*
X94883390Y-68476190D02*
X94692914Y-68428571D01*
X94692914Y-68428571D02*
X94597676Y-68380952D01*
X94597676Y-68380952D02*
X94502438Y-68285714D01*
X94502438Y-68285714D02*
X94454819Y-68142857D01*
X94454819Y-68142857D02*
X94454819Y-68047619D01*
X94454819Y-68047619D02*
X94502438Y-67904762D01*
X94502438Y-67904762D02*
X94550057Y-67857143D01*
X95454819Y-67285714D02*
X95407200Y-67380952D01*
X95407200Y-67380952D02*
X95359580Y-67428571D01*
X95359580Y-67428571D02*
X95264342Y-67476190D01*
X95264342Y-67476190D02*
X94978628Y-67476190D01*
X94978628Y-67476190D02*
X94883390Y-67428571D01*
X94883390Y-67428571D02*
X94835771Y-67380952D01*
X94835771Y-67380952D02*
X94788152Y-67285714D01*
X94788152Y-67285714D02*
X94788152Y-67142857D01*
X94788152Y-67142857D02*
X94835771Y-67047619D01*
X94835771Y-67047619D02*
X94883390Y-67000000D01*
X94883390Y-67000000D02*
X94978628Y-66952381D01*
X94978628Y-66952381D02*
X95264342Y-66952381D01*
X95264342Y-66952381D02*
X95359580Y-67000000D01*
X95359580Y-67000000D02*
X95407200Y-67047619D01*
X95407200Y-67047619D02*
X95454819Y-67142857D01*
X95454819Y-67142857D02*
X95454819Y-67285714D01*
X94788152Y-66095238D02*
X95454819Y-66095238D01*
X94788152Y-66523809D02*
X95311961Y-66523809D01*
X95311961Y-66523809D02*
X95407200Y-66476190D01*
X95407200Y-66476190D02*
X95454819Y-66380952D01*
X95454819Y-66380952D02*
X95454819Y-66238095D01*
X95454819Y-66238095D02*
X95407200Y-66142857D01*
X95407200Y-66142857D02*
X95359580Y-66095238D01*
X94788152Y-65761904D02*
X94788152Y-65380952D01*
X94454819Y-65619047D02*
X95311961Y-65619047D01*
X95311961Y-65619047D02*
X95407200Y-65571428D01*
X95407200Y-65571428D02*
X95454819Y-65476190D01*
X95454819Y-65476190D02*
X95454819Y-65380952D01*
X95454819Y-64523809D02*
X95454819Y-65095237D01*
X95454819Y-64809523D02*
X94454819Y-64809523D01*
X94454819Y-64809523D02*
X94597676Y-64904761D01*
X94597676Y-64904761D02*
X94692914Y-64999999D01*
X94692914Y-64999999D02*
X94740533Y-65095237D01*
X112359580Y-71809524D02*
X112407200Y-71857143D01*
X112407200Y-71857143D02*
X112454819Y-72000000D01*
X112454819Y-72000000D02*
X112454819Y-72095238D01*
X112454819Y-72095238D02*
X112407200Y-72238095D01*
X112407200Y-72238095D02*
X112311961Y-72333333D01*
X112311961Y-72333333D02*
X112216723Y-72380952D01*
X112216723Y-72380952D02*
X112026247Y-72428571D01*
X112026247Y-72428571D02*
X111883390Y-72428571D01*
X111883390Y-72428571D02*
X111692914Y-72380952D01*
X111692914Y-72380952D02*
X111597676Y-72333333D01*
X111597676Y-72333333D02*
X111502438Y-72238095D01*
X111502438Y-72238095D02*
X111454819Y-72095238D01*
X111454819Y-72095238D02*
X111454819Y-72000000D01*
X111454819Y-72000000D02*
X111502438Y-71857143D01*
X111502438Y-71857143D02*
X111550057Y-71809524D01*
X112454819Y-71380952D02*
X111454819Y-71380952D01*
X111835771Y-71380952D02*
X111788152Y-71285714D01*
X111788152Y-71285714D02*
X111788152Y-71095238D01*
X111788152Y-71095238D02*
X111835771Y-71000000D01*
X111835771Y-71000000D02*
X111883390Y-70952381D01*
X111883390Y-70952381D02*
X111978628Y-70904762D01*
X111978628Y-70904762D02*
X112264342Y-70904762D01*
X112264342Y-70904762D02*
X112359580Y-70952381D01*
X112359580Y-70952381D02*
X112407200Y-71000000D01*
X112407200Y-71000000D02*
X112454819Y-71095238D01*
X112454819Y-71095238D02*
X112454819Y-71285714D01*
X112454819Y-71285714D02*
X112407200Y-71380952D01*
X112454819Y-70333333D02*
X112407200Y-70428571D01*
X112407200Y-70428571D02*
X112359580Y-70476190D01*
X112359580Y-70476190D02*
X112264342Y-70523809D01*
X112264342Y-70523809D02*
X111978628Y-70523809D01*
X111978628Y-70523809D02*
X111883390Y-70476190D01*
X111883390Y-70476190D02*
X111835771Y-70428571D01*
X111835771Y-70428571D02*
X111788152Y-70333333D01*
X111788152Y-70333333D02*
X111788152Y-70190476D01*
X111788152Y-70190476D02*
X111835771Y-70095238D01*
X111835771Y-70095238D02*
X111883390Y-70047619D01*
X111883390Y-70047619D02*
X111978628Y-70000000D01*
X111978628Y-70000000D02*
X112264342Y-70000000D01*
X112264342Y-70000000D02*
X112359580Y-70047619D01*
X112359580Y-70047619D02*
X112407200Y-70095238D01*
X112407200Y-70095238D02*
X112454819Y-70190476D01*
X112454819Y-70190476D02*
X112454819Y-70333333D01*
X112454819Y-69428571D02*
X112407200Y-69523809D01*
X112407200Y-69523809D02*
X112359580Y-69571428D01*
X112359580Y-69571428D02*
X112264342Y-69619047D01*
X112264342Y-69619047D02*
X111978628Y-69619047D01*
X111978628Y-69619047D02*
X111883390Y-69571428D01*
X111883390Y-69571428D02*
X111835771Y-69523809D01*
X111835771Y-69523809D02*
X111788152Y-69428571D01*
X111788152Y-69428571D02*
X111788152Y-69285714D01*
X111788152Y-69285714D02*
X111835771Y-69190476D01*
X111835771Y-69190476D02*
X111883390Y-69142857D01*
X111883390Y-69142857D02*
X111978628Y-69095238D01*
X111978628Y-69095238D02*
X112264342Y-69095238D01*
X112264342Y-69095238D02*
X112359580Y-69142857D01*
X112359580Y-69142857D02*
X112407200Y-69190476D01*
X112407200Y-69190476D02*
X112454819Y-69285714D01*
X112454819Y-69285714D02*
X112454819Y-69428571D01*
X111788152Y-68809523D02*
X111788152Y-68428571D01*
X111454819Y-68666666D02*
X112311961Y-68666666D01*
X112311961Y-68666666D02*
X112407200Y-68619047D01*
X112407200Y-68619047D02*
X112454819Y-68523809D01*
X112454819Y-68523809D02*
X112454819Y-68428571D01*
X112454819Y-67571428D02*
X112454819Y-68142856D01*
X112454819Y-67857142D02*
X111454819Y-67857142D01*
X111454819Y-67857142D02*
X111597676Y-67952380D01*
X111597676Y-67952380D02*
X111692914Y-68047618D01*
X111692914Y-68047618D02*
X111740533Y-68142856D01*
X117595237Y-70359580D02*
X117547618Y-70407200D01*
X117547618Y-70407200D02*
X117404761Y-70454819D01*
X117404761Y-70454819D02*
X117309523Y-70454819D01*
X117309523Y-70454819D02*
X117166666Y-70407200D01*
X117166666Y-70407200D02*
X117071428Y-70311961D01*
X117071428Y-70311961D02*
X117023809Y-70216723D01*
X117023809Y-70216723D02*
X116976190Y-70026247D01*
X116976190Y-70026247D02*
X116976190Y-69883390D01*
X116976190Y-69883390D02*
X117023809Y-69692914D01*
X117023809Y-69692914D02*
X117071428Y-69597676D01*
X117071428Y-69597676D02*
X117166666Y-69502438D01*
X117166666Y-69502438D02*
X117309523Y-69454819D01*
X117309523Y-69454819D02*
X117404761Y-69454819D01*
X117404761Y-69454819D02*
X117547618Y-69502438D01*
X117547618Y-69502438D02*
X117595237Y-69550057D01*
X117928571Y-69788152D02*
X118166666Y-70454819D01*
X118166666Y-70454819D02*
X118404761Y-69788152D01*
X119214285Y-70407200D02*
X119119047Y-70454819D01*
X119119047Y-70454819D02*
X118928571Y-70454819D01*
X118928571Y-70454819D02*
X118833333Y-70407200D01*
X118833333Y-70407200D02*
X118785714Y-70359580D01*
X118785714Y-70359580D02*
X118738095Y-70264342D01*
X118738095Y-70264342D02*
X118738095Y-69978628D01*
X118738095Y-69978628D02*
X118785714Y-69883390D01*
X118785714Y-69883390D02*
X118833333Y-69835771D01*
X118833333Y-69835771D02*
X118928571Y-69788152D01*
X118928571Y-69788152D02*
X119119047Y-69788152D01*
X119119047Y-69788152D02*
X119214285Y-69835771D01*
X120071428Y-70407200D02*
X119976190Y-70454819D01*
X119976190Y-70454819D02*
X119785714Y-70454819D01*
X119785714Y-70454819D02*
X119690476Y-70407200D01*
X119690476Y-70407200D02*
X119642857Y-70359580D01*
X119642857Y-70359580D02*
X119595238Y-70264342D01*
X119595238Y-70264342D02*
X119595238Y-69978628D01*
X119595238Y-69978628D02*
X119642857Y-69883390D01*
X119642857Y-69883390D02*
X119690476Y-69835771D01*
X119690476Y-69835771D02*
X119785714Y-69788152D01*
X119785714Y-69788152D02*
X119976190Y-69788152D01*
X119976190Y-69788152D02*
X120071428Y-69835771D01*
X121023809Y-70454819D02*
X120452381Y-70454819D01*
X120738095Y-70454819D02*
X120738095Y-69454819D01*
X120738095Y-69454819D02*
X120642857Y-69597676D01*
X120642857Y-69597676D02*
X120547619Y-69692914D01*
X120547619Y-69692914D02*
X120452381Y-69740533D01*
X102509580Y-71261904D02*
X102557200Y-71309523D01*
X102557200Y-71309523D02*
X102604819Y-71452380D01*
X102604819Y-71452380D02*
X102604819Y-71547618D01*
X102604819Y-71547618D02*
X102557200Y-71690475D01*
X102557200Y-71690475D02*
X102461961Y-71785713D01*
X102461961Y-71785713D02*
X102366723Y-71833332D01*
X102366723Y-71833332D02*
X102176247Y-71880951D01*
X102176247Y-71880951D02*
X102033390Y-71880951D01*
X102033390Y-71880951D02*
X101842914Y-71833332D01*
X101842914Y-71833332D02*
X101747676Y-71785713D01*
X101747676Y-71785713D02*
X101652438Y-71690475D01*
X101652438Y-71690475D02*
X101604819Y-71547618D01*
X101604819Y-71547618D02*
X101604819Y-71452380D01*
X101604819Y-71452380D02*
X101652438Y-71309523D01*
X101652438Y-71309523D02*
X101700057Y-71261904D01*
X102604819Y-70833332D02*
X101938152Y-70833332D01*
X101604819Y-70833332D02*
X101652438Y-70880951D01*
X101652438Y-70880951D02*
X101700057Y-70833332D01*
X101700057Y-70833332D02*
X101652438Y-70785713D01*
X101652438Y-70785713D02*
X101604819Y-70833332D01*
X101604819Y-70833332D02*
X101700057Y-70833332D01*
X101938152Y-70357142D02*
X102604819Y-70357142D01*
X102033390Y-70357142D02*
X101985771Y-70309523D01*
X101985771Y-70309523D02*
X101938152Y-70214285D01*
X101938152Y-70214285D02*
X101938152Y-70071428D01*
X101938152Y-70071428D02*
X101985771Y-69976190D01*
X101985771Y-69976190D02*
X102081009Y-69928571D01*
X102081009Y-69928571D02*
X102604819Y-69928571D01*
X102604819Y-69547618D02*
X101938152Y-69023809D01*
X101938152Y-69547618D02*
X102604819Y-69023809D01*
X102604819Y-68119047D02*
X102604819Y-68690475D01*
X102604819Y-68404761D02*
X101604819Y-68404761D01*
X101604819Y-68404761D02*
X101747676Y-68499999D01*
X101747676Y-68499999D02*
X101842914Y-68595237D01*
X101842914Y-68595237D02*
X101890533Y-68690475D01*
X95859580Y-75357142D02*
X95907200Y-75404761D01*
X95907200Y-75404761D02*
X95954819Y-75547618D01*
X95954819Y-75547618D02*
X95954819Y-75642856D01*
X95954819Y-75642856D02*
X95907200Y-75785713D01*
X95907200Y-75785713D02*
X95811961Y-75880951D01*
X95811961Y-75880951D02*
X95716723Y-75928570D01*
X95716723Y-75928570D02*
X95526247Y-75976189D01*
X95526247Y-75976189D02*
X95383390Y-75976189D01*
X95383390Y-75976189D02*
X95192914Y-75928570D01*
X95192914Y-75928570D02*
X95097676Y-75880951D01*
X95097676Y-75880951D02*
X95002438Y-75785713D01*
X95002438Y-75785713D02*
X94954819Y-75642856D01*
X94954819Y-75642856D02*
X94954819Y-75547618D01*
X94954819Y-75547618D02*
X95002438Y-75404761D01*
X95002438Y-75404761D02*
X95050057Y-75357142D01*
X95954819Y-74928570D02*
X95288152Y-74928570D01*
X94954819Y-74928570D02*
X95002438Y-74976189D01*
X95002438Y-74976189D02*
X95050057Y-74928570D01*
X95050057Y-74928570D02*
X95002438Y-74880951D01*
X95002438Y-74880951D02*
X94954819Y-74928570D01*
X94954819Y-74928570D02*
X95050057Y-74928570D01*
X95288152Y-74452380D02*
X95954819Y-74452380D01*
X95383390Y-74452380D02*
X95335771Y-74404761D01*
X95335771Y-74404761D02*
X95288152Y-74309523D01*
X95288152Y-74309523D02*
X95288152Y-74166666D01*
X95288152Y-74166666D02*
X95335771Y-74071428D01*
X95335771Y-74071428D02*
X95431009Y-74023809D01*
X95431009Y-74023809D02*
X95954819Y-74023809D01*
X95954819Y-73023809D02*
X95954819Y-73595237D01*
X95954819Y-73309523D02*
X94954819Y-73309523D01*
X94954819Y-73309523D02*
X95097676Y-73404761D01*
X95097676Y-73404761D02*
X95192914Y-73499999D01*
X95192914Y-73499999D02*
X95240533Y-73595237D01*
D12*
%TO.C,Rent1*%
X106315276Y-75477500D02*
X106824724Y-75477500D01*
X106315276Y-76522500D02*
X106824724Y-76522500D01*
D10*
%TO.C,Renb1*%
X109340000Y-76500000D02*
X108630000Y-76500000D01*
X108630000Y-76500000D02*
X108630000Y-75500000D01*
X108630000Y-75500000D02*
X109340000Y-75500000D01*
X109800000Y-76500000D02*
X110510000Y-76500000D01*
X110510000Y-76500000D02*
X110510000Y-75500000D01*
X110510000Y-75500000D02*
X109800000Y-75500000D01*
D12*
%TO.C,R1*%
X81832776Y-87477500D02*
X82342224Y-87477500D01*
X81832776Y-88522500D02*
X82342224Y-88522500D01*
%TO.C,C7*%
X114738748Y-77765000D02*
X115261252Y-77765000D01*
X114738748Y-79235000D02*
X115261252Y-79235000D01*
%TO.C,C3*%
X81941233Y-84980000D02*
X82233767Y-84980000D01*
X81941233Y-86000000D02*
X82233767Y-86000000D01*
D13*
%TO.C,USB1*%
X56370000Y-54725000D02*
X56370000Y-52925000D01*
X56370000Y-58435000D02*
X56370000Y-56955000D01*
X47430000Y-54725000D02*
X47430000Y-52925000D01*
X47430000Y-58435000D02*
X47430000Y-56955000D01*
X47430000Y-58435000D02*
X56370000Y-58435000D01*
D10*
%TO.C,U6*%
X54010000Y-45830000D02*
X53510000Y-45330000D01*
X53510000Y-43170000D02*
X53510000Y-42670000D01*
X53510000Y-42670000D02*
X54010000Y-42670000D01*
X56670000Y-43170000D02*
X56670000Y-42670000D01*
X56670000Y-42670000D02*
X56170000Y-42670000D01*
X53510000Y-45330000D02*
X53510000Y-45830000D01*
X53510000Y-45830000D02*
X54010000Y-45830000D01*
X56670000Y-45330000D02*
X56670000Y-45830000D01*
X56670000Y-45830000D02*
X56170000Y-45830000D01*
X54020000Y-46150000D02*
G75*
G02*
X53880000Y-46150000I-70000J0D01*
G01*
X53880000Y-46150000D02*
G75*
G02*
X54020000Y-46150000I70000J0D01*
G01*
%TO.C,U4*%
X53425000Y-37750000D02*
X53665000Y-37750000D01*
X53425000Y-40900000D02*
X53425000Y-37750000D01*
X53665000Y-40900000D02*
X53425000Y-40900000D01*
X56325000Y-40900000D02*
X56575000Y-40900000D01*
X56575000Y-37750000D02*
X56325000Y-37750000D01*
X56575000Y-40900000D02*
X56575000Y-37750000D01*
X54065000Y-41370000D02*
G75*
G02*
X53925000Y-41370000I-70000J0D01*
G01*
X53925000Y-41370000D02*
G75*
G02*
X54065000Y-41370000I70000J0D01*
G01*
D14*
%TO.C,U3*%
X45350000Y-59300000D02*
X45350000Y-58900000D01*
X45350000Y-58900000D02*
X44950000Y-58900000D01*
X41050000Y-59300000D02*
X41050000Y-58900000D01*
X41050000Y-58900000D02*
X41450000Y-58900000D01*
X41450000Y-63200000D02*
X41050000Y-63200000D01*
X41050000Y-63200000D02*
X41050000Y-62800000D01*
X45350000Y-62800000D02*
X45350000Y-63200000D01*
X45350000Y-63200000D02*
X44950000Y-63200000D01*
D13*
%TO.C,U2*%
X45605000Y-38495000D02*
X45605000Y-37715000D01*
X27585000Y-37715000D02*
X27585000Y-38495000D01*
X27585000Y-37715000D02*
X45605000Y-37715000D01*
X44255000Y-57215000D02*
X45605000Y-57215000D01*
X45605000Y-57215000D02*
X45605000Y-56365000D01*
X27585000Y-56365000D02*
X27585000Y-57215000D01*
X27585000Y-57215000D02*
X28915000Y-57215000D01*
X26905000Y-38115000D02*
G75*
G02*
X26545000Y-38115000I-180000J0D01*
G01*
X26545000Y-38115000D02*
G75*
G02*
X26905000Y-38115000I180000J0D01*
G01*
D10*
%TO.C,Rtbb1*%
X117340000Y-76000000D02*
X116630000Y-76000000D01*
X116630000Y-76000000D02*
X116630000Y-75000000D01*
X116630000Y-75000000D02*
X117340000Y-75000000D01*
X117800000Y-76000000D02*
X118510000Y-76000000D01*
X118510000Y-76000000D02*
X118510000Y-75000000D01*
X118510000Y-75000000D02*
X117800000Y-75000000D01*
%TO.C,Rtfb1*%
X114840000Y-76000000D02*
X114130000Y-76000000D01*
X114130000Y-76000000D02*
X114130000Y-75000000D01*
X114130000Y-75000000D02*
X114840000Y-75000000D01*
X115300000Y-76000000D02*
X116010000Y-76000000D01*
X116010000Y-76000000D02*
X116010000Y-75000000D01*
X116010000Y-75000000D02*
X115300000Y-75000000D01*
%TO.C,Rpg1*%
X110270000Y-79000000D02*
X109560000Y-79000000D01*
X109560000Y-79000000D02*
X109560000Y-78000000D01*
X109560000Y-78000000D02*
X110270000Y-78000000D01*
X110730000Y-79000000D02*
X111440000Y-79000000D01*
X111440000Y-79000000D02*
X111440000Y-78000000D01*
X111440000Y-78000000D02*
X110730000Y-78000000D01*
D13*
%TO.C,L2*%
X105000000Y-60270000D02*
X105000000Y-59640000D01*
X105000000Y-64280000D02*
X105000000Y-63730000D01*
X116000000Y-63730000D02*
X116000000Y-64540000D01*
X116000000Y-59720000D02*
X116000000Y-60270000D01*
X105000000Y-57000000D02*
X116000000Y-57000000D01*
X105000000Y-67000000D02*
X116000000Y-67000000D01*
X105000000Y-67000000D02*
X105000000Y-64280000D01*
X105000000Y-59720000D02*
X105000000Y-57000000D01*
X116000000Y-67000000D02*
X116000000Y-64280000D01*
X116000000Y-59720000D02*
X116000000Y-57000000D01*
D14*
%TO.C,IC1*%
X107525000Y-68920000D02*
X109050000Y-68920000D01*
D15*
%TO.C,D1*%
X47230000Y-66990000D02*
X47230000Y-67160000D01*
X47230000Y-67160000D02*
X47830000Y-67160000D01*
X48830000Y-66990000D02*
X48830000Y-67160000D01*
X48830000Y-67160000D02*
X48230000Y-67160000D01*
X47830000Y-66160000D02*
X47230000Y-66160000D01*
X47230000Y-66160000D02*
X47230000Y-66330000D01*
X48230000Y-66160000D02*
X48830000Y-66160000D01*
X48830000Y-66160000D02*
X48830000Y-66330000D01*
X47130000Y-66360000D02*
X47130000Y-66960000D01*
D10*
%TO.C,Cout2*%
X94430000Y-63940000D02*
X91570000Y-63940000D01*
X91420000Y-64090000D02*
X91420000Y-65720000D01*
X94580000Y-65720000D02*
X94580000Y-64090000D01*
X91420000Y-68910000D02*
X91420000Y-67280000D01*
X94580000Y-67280000D02*
X94580000Y-68910000D01*
X94430000Y-69060000D02*
X91570000Y-69060000D01*
X94430000Y-63940000D02*
G75*
G02*
X94580000Y-64090000I0J-150000D01*
G01*
X91420000Y-64090000D02*
G75*
G02*
X91570000Y-63940000I150000J0D01*
G01*
X94580000Y-68910000D02*
G75*
G02*
X94430000Y-69060000I-150000J0D01*
G01*
X91570000Y-69060000D02*
G75*
G02*
X91420000Y-68910000I0J150000D01*
G01*
%TO.C,Cout1*%
X100430000Y-63940000D02*
X97570000Y-63940000D01*
X97420000Y-64090000D02*
X97420000Y-65720000D01*
X100580000Y-65720000D02*
X100580000Y-64090000D01*
X97420000Y-68910000D02*
X97420000Y-67280000D01*
X100580000Y-67280000D02*
X100580000Y-68910000D01*
X100430000Y-69060000D02*
X97570000Y-69060000D01*
X100430000Y-63940000D02*
G75*
G02*
X100580000Y-64090000I0J-150000D01*
G01*
X97420000Y-64090000D02*
G75*
G02*
X97570000Y-63940000I150000J0D01*
G01*
X100580000Y-68910000D02*
G75*
G02*
X100430000Y-69060000I-150000J0D01*
G01*
X97570000Y-69060000D02*
G75*
G02*
X97420000Y-68910000I0J150000D01*
G01*
%TO.C,Cboot1*%
X115500000Y-68980000D02*
X115500000Y-69770000D01*
X116500000Y-69770000D02*
X116500000Y-68980000D01*
X116350000Y-68830000D02*
X115650000Y-68830000D01*
X115500000Y-71020000D02*
X115500000Y-70230000D01*
X116500000Y-70230000D02*
X116500000Y-71020000D01*
X116350000Y-71170000D02*
X115650000Y-71170000D01*
X116350000Y-68830000D02*
G75*
G02*
X116500000Y-68980000I0J-150000D01*
G01*
X115500000Y-68980000D02*
G75*
G02*
X115650000Y-68830000I150000J0D01*
G01*
X116500000Y-71020000D02*
G75*
G02*
X116350000Y-71170000I-150000J0D01*
G01*
X115650000Y-71170000D02*
G75*
G02*
X115500000Y-71020000I0J150000D01*
G01*
D13*
%TO.C,Cvcc1*%
X117590000Y-72390000D02*
X117590000Y-71590000D01*
X118700000Y-72700000D02*
X117900000Y-72700000D01*
X118700000Y-71280000D02*
X117900000Y-71280000D01*
X119280000Y-72710000D02*
X120080000Y-72710000D01*
X120390000Y-72400000D02*
X120390000Y-71600000D01*
X119280000Y-71290000D02*
X120080000Y-71290000D01*
X120390000Y-72400000D02*
G75*
G02*
X120080000Y-72710000I-310000J0D01*
G01*
X120080000Y-71290000D02*
G75*
G02*
X120390000Y-71600000I0J-310000D01*
G01*
X117900000Y-72700000D02*
G75*
G02*
X117590000Y-72390000I0J310000D01*
G01*
X117590000Y-71590000D02*
G75*
G02*
X117900000Y-71280000I310000J0D01*
G01*
D12*
%TO.C,Cinx1*%
X104910000Y-70711252D02*
X104910000Y-69288748D01*
X103090000Y-70711252D02*
X103090000Y-69288748D01*
D10*
%TO.C,Cin1*%
X98070000Y-77060000D02*
G75*
G02*
X97920000Y-76910000I0J150000D01*
G01*
X101080000Y-76910000D02*
G75*
G02*
X100930000Y-77060000I-150000J0D01*
G01*
X97920000Y-72090000D02*
G75*
G02*
X98070000Y-71940000I150000J0D01*
G01*
X100930000Y-71940000D02*
G75*
G02*
X101080000Y-72090000I0J-150000D01*
G01*
X100930000Y-77060000D02*
X98070000Y-77060000D01*
X101080000Y-75280000D02*
X101080000Y-76910000D01*
X97920000Y-76910000D02*
X97920000Y-75280000D01*
X101080000Y-73720000D02*
X101080000Y-72090000D01*
X97920000Y-72090000D02*
X97920000Y-73720000D01*
X100930000Y-71940000D02*
X98070000Y-71940000D01*
%TD*%
%LPC*%
D16*
%TO.C,Rent1*%
X105657500Y-76000000D03*
X107482500Y-76000000D03*
%TD*%
D17*
%TO.C,Renb1*%
X110000000Y-76000000D03*
X109140000Y-76000000D03*
%TD*%
D16*
%TO.C,R1*%
X81175000Y-88000000D03*
X83000000Y-88000000D03*
%TD*%
D18*
%TO.C,C7*%
X113962500Y-78500000D03*
X116037500Y-78500000D03*
%TD*%
D19*
%TO.C,C3*%
X81225000Y-85490000D03*
X82950000Y-85490000D03*
%TD*%
D20*
%TO.C,USB1*%
X55250000Y-51095000D03*
X54950000Y-51095000D03*
X54450000Y-51095000D03*
X54150000Y-51095000D03*
X53650000Y-51095000D03*
X53150000Y-51095000D03*
X52650000Y-51095000D03*
X52150000Y-51095000D03*
X51650000Y-51095000D03*
X51150000Y-51095000D03*
X50650000Y-51095000D03*
X50150000Y-51095000D03*
X49650000Y-51095000D03*
X49350000Y-51095000D03*
X48850000Y-51095000D03*
X48550000Y-51095000D03*
D21*
X56220000Y-55835000D03*
D22*
X56220000Y-51655000D03*
D21*
X47580000Y-55835000D03*
D22*
X47580000Y-51655000D03*
D23*
X49010000Y-52155000D03*
X54790000Y-52155000D03*
%TD*%
D24*
%TO.C,U6*%
X54340000Y-45660000D03*
X54840000Y-45660000D03*
X55340000Y-45660000D03*
X55840000Y-45660000D03*
D25*
X56500000Y-45000000D03*
X56500000Y-44500000D03*
X56500000Y-44000000D03*
X56500000Y-43500000D03*
D24*
X55840000Y-42840000D03*
X55340000Y-42840000D03*
X54840000Y-42840000D03*
X54340000Y-42840000D03*
D25*
X53680000Y-43500000D03*
X53680000Y-44000000D03*
X53680000Y-44500000D03*
X53680000Y-45000000D03*
D26*
X55090000Y-44250000D03*
%TD*%
D24*
%TO.C,U4*%
X53995000Y-40740000D03*
X54495000Y-40740000D03*
X54995000Y-40740000D03*
X55495000Y-40740000D03*
X55995000Y-40740000D03*
X55995000Y-37920000D03*
X55495000Y-37920000D03*
X54995000Y-37920000D03*
X54495000Y-37920000D03*
X53995000Y-37920000D03*
D27*
X54995000Y-39330000D03*
%TD*%
D28*
%TO.C,U3*%
X41940000Y-63050000D03*
X42440000Y-63050000D03*
X42940000Y-63050000D03*
X43440000Y-63050000D03*
X43940000Y-63050000D03*
X44440000Y-63050000D03*
D29*
X45190000Y-62300000D03*
X45190000Y-61800000D03*
X45190000Y-61300000D03*
X45190000Y-60800000D03*
X45190000Y-60300000D03*
X45190000Y-59800000D03*
D28*
X44440000Y-59050000D03*
X43940000Y-59050000D03*
X43440000Y-59050000D03*
X42940000Y-59050000D03*
X42440000Y-59050000D03*
X41940000Y-59050000D03*
D29*
X41190000Y-59800000D03*
X41190000Y-60300000D03*
X41190000Y-60800000D03*
X41190000Y-61300000D03*
X41190000Y-61800000D03*
X41190000Y-62300000D03*
D30*
X43200000Y-61050000D03*
%TD*%
D31*
%TO.C,U2*%
X27835000Y-39175000D03*
X27835000Y-40445000D03*
X27835000Y-41715000D03*
X27835000Y-42985000D03*
X27835000Y-44255000D03*
X27835000Y-45525000D03*
X27835000Y-46795000D03*
X27835000Y-48065000D03*
X27835000Y-49335000D03*
X27835000Y-50605000D03*
X27835000Y-51875000D03*
X27835000Y-53145000D03*
X27835000Y-54415000D03*
X27835000Y-55685000D03*
D32*
X29595000Y-56955000D03*
X30865000Y-56955000D03*
X32135000Y-56955000D03*
X33405000Y-56955000D03*
X34675000Y-56955000D03*
X35955000Y-56955000D03*
X37215000Y-56955000D03*
X38485000Y-56955000D03*
X39755000Y-56955000D03*
X41035000Y-56955000D03*
X42305000Y-56955000D03*
X43575000Y-56925000D03*
D31*
X45335000Y-55685000D03*
X45335000Y-54415000D03*
X45335000Y-53145000D03*
X45335000Y-51875000D03*
X45335000Y-50605000D03*
X45335000Y-49335000D03*
X45335000Y-48065000D03*
X45335000Y-46795000D03*
X45335000Y-45525000D03*
X45335000Y-44255000D03*
X45335000Y-42985000D03*
X45335000Y-41715000D03*
X45335000Y-40445000D03*
X45335000Y-39175000D03*
D33*
X35085000Y-46895000D03*
X33685000Y-46895000D03*
X36485000Y-46895000D03*
X36485000Y-45495000D03*
X35085000Y-45495000D03*
X33685000Y-45495000D03*
X33685000Y-48295000D03*
X35085000Y-48295000D03*
X36485000Y-48295000D03*
D34*
X35085000Y-46195000D03*
X35085000Y-47595000D03*
X36485000Y-47595000D03*
X36485000Y-46195000D03*
X35785000Y-45495000D03*
X35785000Y-46895000D03*
X35785000Y-48295000D03*
X33685000Y-47595000D03*
X33685000Y-46195000D03*
X34385000Y-45495000D03*
X34385000Y-46895000D03*
X34385000Y-48295000D03*
%TD*%
D17*
%TO.C,Rtbb1*%
X118000000Y-75500000D03*
X117140000Y-75500000D03*
%TD*%
%TO.C,Rtfb1*%
X115500000Y-75500000D03*
X114640000Y-75500000D03*
%TD*%
%TO.C,Rpg1*%
X110930000Y-78500000D03*
X110070000Y-78500000D03*
%TD*%
D35*
%TO.C,L2*%
X115710000Y-62000000D03*
X105290000Y-62000000D03*
%TD*%
D36*
%TO.C,IC1*%
X108288000Y-69595000D03*
X108288000Y-70865000D03*
X108288000Y-72135000D03*
X108288000Y-73405000D03*
X113712000Y-73405000D03*
X113712000Y-72135000D03*
X113712000Y-70865000D03*
X113712000Y-69595000D03*
D37*
X111000000Y-71500000D03*
%TD*%
D38*
%TO.C,D1*%
X47630000Y-66660000D03*
X48430000Y-66660000D03*
%TD*%
D39*
%TO.C,Cout2*%
X93000000Y-64980000D03*
X93000000Y-68020000D03*
%TD*%
%TO.C,Cout1*%
X99000000Y-64980000D03*
X99000000Y-68020000D03*
%TD*%
D40*
%TO.C,Cboot1*%
X116000000Y-69450000D03*
X116000000Y-70550000D03*
%TD*%
D41*
%TO.C,Cvcc1*%
X118280000Y-71990000D03*
X119680000Y-71990000D03*
%TD*%
D42*
%TO.C,Cinx1*%
X104000000Y-68525000D03*
X104000000Y-71475000D03*
%TD*%
D39*
%TO.C,Cin1*%
X99500000Y-76020000D03*
X99500000Y-72980000D03*
%TD*%
%LPD*%
M02*
