%TF.GenerationSoftware,KiCad,Pcbnew,8.0.0*%
%TF.CreationDate,2024-03-08T03:35:26+01:00*%
%TF.ProjectId,pd65hotplate_esp32,70643635-686f-4747-906c-6174655f6573,rev?*%
%TF.SameCoordinates,Original*%
%TF.FileFunction,Copper,L1,Top*%
%TF.FilePolarity,Positive*%
%FSLAX46Y46*%
G04 Gerber Fmt 4.6, Leading zero omitted, Abs format (unit mm)*
G04 Created by KiCad (PCBNEW 8.0.0) date 2024-03-08 03:35:26*
%MOMM*%
%LPD*%
G01*
G04 APERTURE LIST*
G04 Aperture macros list*
%AMRoundRect*
0 Rectangle with rounded corners*
0 $1 Rounding radius*
0 $2 $3 $4 $5 $6 $7 $8 $9 X,Y pos of 4 corners*
0 Add a 4 corners polygon primitive as box body*
4,1,4,$2,$3,$4,$5,$6,$7,$8,$9,$2,$3,0*
0 Add four circle primitives for the rounded corners*
1,1,$1+$1,$2,$3*
1,1,$1+$1,$4,$5*
1,1,$1+$1,$6,$7*
1,1,$1+$1,$8,$9*
0 Add four rect primitives between the rounded corners*
20,1,$1+$1,$2,$3,$4,$5,0*
20,1,$1+$1,$4,$5,$6,$7,0*
20,1,$1+$1,$6,$7,$8,$9,0*
20,1,$1+$1,$8,$9,$2,$3,0*%
G04 Aperture macros list end*
%TA.AperFunction,SMDPad,CuDef*%
%ADD10RoundRect,0.237500X-0.250000X-0.237500X0.250000X-0.237500X0.250000X0.237500X-0.250000X0.237500X0*%
%TD*%
%TA.AperFunction,SMDPad,CuDef*%
%ADD11R,0.570000X0.540000*%
%TD*%
%TA.AperFunction,SMDPad,CuDef*%
%ADD12RoundRect,0.250000X-0.337500X-0.475000X0.337500X-0.475000X0.337500X0.475000X-0.337500X0.475000X0*%
%TD*%
%TA.AperFunction,SMDPad,CuDef*%
%ADD13RoundRect,0.237500X-0.300000X-0.237500X0.300000X-0.237500X0.300000X0.237500X-0.300000X0.237500X0*%
%TD*%
%TA.AperFunction,SMDPad,CuDef*%
%ADD14R,0.300000X1.150000*%
%TD*%
%TA.AperFunction,ComponentPad*%
%ADD15O,1.000000X1.800000*%
%TD*%
%TA.AperFunction,ComponentPad*%
%ADD16O,1.000000X2.100000*%
%TD*%
%TA.AperFunction,ComponentPad*%
%ADD17C,0.650000*%
%TD*%
%TA.AperFunction,SMDPad,CuDef*%
%ADD18R,0.280000X0.660000*%
%TD*%
%TA.AperFunction,SMDPad,CuDef*%
%ADD19R,0.660000X0.280000*%
%TD*%
%TA.AperFunction,SMDPad,CuDef*%
%ADD20R,1.750000X1.750000*%
%TD*%
%TA.AperFunction,SMDPad,CuDef*%
%ADD21R,2.500000X1.500000*%
%TD*%
%TA.AperFunction,SMDPad,CuDef*%
%ADD22O,0.280000X0.700000*%
%TD*%
%TA.AperFunction,SMDPad,CuDef*%
%ADD23O,0.700000X0.280000*%
%TD*%
%TA.AperFunction,SMDPad,CuDef*%
%ADD24R,2.800000X2.800000*%
%TD*%
%TA.AperFunction,SMDPad,CuDef*%
%ADD25R,1.500000X0.900000*%
%TD*%
%TA.AperFunction,SMDPad,CuDef*%
%ADD26R,0.900000X1.500000*%
%TD*%
%TA.AperFunction,SMDPad,CuDef*%
%ADD27R,0.900000X0.900000*%
%TD*%
%TA.AperFunction,ComponentPad*%
%ADD28C,0.400000*%
%TD*%
%TA.AperFunction,SMDPad,CuDef*%
%ADD29R,3.000000X3.000000*%
%TD*%
%TA.AperFunction,SMDPad,CuDef*%
%ADD30R,1.525000X0.650000*%
%TD*%
%TA.AperFunction,SMDPad,CuDef*%
%ADD31R,2.400000X3.100000*%
%TD*%
%TA.AperFunction,SMDPad,CuDef*%
%ADD32R,0.500000X0.600000*%
%TD*%
%TA.AperFunction,SMDPad,CuDef*%
%ADD33R,2.700000X1.630000*%
%TD*%
%TA.AperFunction,SMDPad,CuDef*%
%ADD34R,0.540000X0.790000*%
%TD*%
%TA.AperFunction,SMDPad,CuDef*%
%ADD35R,0.800000X0.900000*%
%TD*%
%TA.AperFunction,SMDPad,CuDef*%
%ADD36RoundRect,0.250000X0.650000X-0.325000X0.650000X0.325000X-0.650000X0.325000X-0.650000X-0.325000X0*%
%TD*%
G04 APERTURE END LIST*
D10*
%TO.P,Rent1,1*%
%TO.N,Vbus*%
X105657500Y-76000000D03*
%TO.P,Rent1,2*%
%TO.N,Net-(IC1-EN)*%
X107482500Y-76000000D03*
%TD*%
D11*
%TO.P,Renb1,2*%
%TO.N,GND*%
X110000000Y-76000000D03*
%TO.P,Renb1,1*%
%TO.N,Net-(IC1-EN)*%
X109140000Y-76000000D03*
%TD*%
D10*
%TO.P,R1,1*%
%TO.N,Vbus*%
X81175000Y-88000000D03*
%TO.P,R1,2*%
%TO.N,Net-(U4-VIN)*%
X83000000Y-88000000D03*
%TD*%
D12*
%TO.P,C7,1*%
%TO.N,3V3*%
X113962500Y-78500000D03*
%TO.P,C7,2*%
%TO.N,Net-(IC1-FB)*%
X116037500Y-78500000D03*
%TD*%
D13*
%TO.P,C3,1*%
%TO.N,Net-(U4-VIN)*%
X81225000Y-85490000D03*
%TO.P,C3,2*%
%TO.N,GND*%
X82950000Y-85490000D03*
%TD*%
D14*
%TO.P,USB1,A12,GND*%
%TO.N,GND*%
X55250000Y-51095000D03*
%TO.P,USB1,B1,GND*%
X54950000Y-51095000D03*
%TO.P,USB1,A9,VBUS*%
%TO.N,Vbus*%
X54450000Y-51095000D03*
%TO.P,USB1,B4,VBUS*%
X54150000Y-51095000D03*
%TO.P,USB1,B5,CC2*%
%TO.N,CC2*%
X53650000Y-51095000D03*
%TO.P,USB1,A8,SUB1*%
%TO.N,unconnected-(USB1-SUB1-PadA8)*%
X53150000Y-51095000D03*
%TO.P,USB1,B6,DP2*%
%TO.N,DP*%
X52650000Y-51095000D03*
%TO.P,USB1,A7,DN1*%
%TO.N,DN*%
X52150000Y-51095000D03*
%TO.P,USB1,A6,DP1*%
%TO.N,DP*%
X51650000Y-51095000D03*
%TO.P,USB1,B7,DN2*%
%TO.N,DN*%
X51150000Y-51095000D03*
%TO.P,USB1,A5,CC1*%
%TO.N,CC1*%
X50650000Y-51095000D03*
%TO.P,USB1,B8,SUB2*%
%TO.N,unconnected-(USB1-SUB2-PadB8)*%
X50150000Y-51095000D03*
%TO.P,USB1,B9,VBUS*%
%TO.N,Vbus*%
X49650000Y-51095000D03*
%TO.P,USB1,A4,VBUS*%
X49350000Y-51095000D03*
%TO.P,USB1,B12,GND*%
%TO.N,GND*%
X48850000Y-51095000D03*
%TO.P,USB1,A1,GND*%
X48550000Y-51095000D03*
D15*
%TO.P,USB1,26,EH*%
X56220000Y-55835000D03*
D16*
%TO.P,USB1,25,EH*%
X56220000Y-51655000D03*
D15*
%TO.P,USB1,27,EH*%
X47580000Y-55835000D03*
D16*
%TO.P,USB1,28,EH*%
X47580000Y-51655000D03*
D17*
%TO.P,USB1,*%
%TO.N,*%
X49010000Y-52155000D03*
X54790000Y-52155000D03*
%TD*%
D18*
%TO.P,U6,1,D+*%
%TO.N,DP*%
X54340000Y-45660000D03*
%TO.P,U6,2,D-*%
%TO.N,DN*%
X54840000Y-45660000D03*
%TO.P,U6,3,CC1*%
%TO.N,CC1*%
X55340000Y-45660000D03*
%TO.P,U6,4,CC2*%
%TO.N,CC2*%
X55840000Y-45660000D03*
D19*
%TO.P,U6,5,VDD*%
%TO.N,unconnected-(U6-VDD-Pad5)*%
X56500000Y-45000000D03*
%TO.P,U6,6,DBG_N*%
%TO.N,unconnected-(U6-DBG_N-Pad6)*%
X56500000Y-44500000D03*
%TO.P,U6,7,EN_HVDCP/OUT1*%
%TO.N,unconnected-(U6-EN_HVDCP{slash}OUT1-Pad7)*%
X56500000Y-44000000D03*
%TO.P,U6,8,ADDR/ORIENT*%
%TO.N,unconnected-(U6-ADDR{slash}ORIENT-Pad8)*%
X56500000Y-43500000D03*
D18*
%TO.P,U6,9,SDA/SNK_VSET*%
%TO.N,SDA*%
X55840000Y-42840000D03*
%TO.P,U6,10,SCL/SNK_ISET*%
%TO.N,SCL*%
X55340000Y-42840000D03*
%TO.P,U6,11,INT_N*%
%TO.N,unconnected-(U6-INT_N-Pad11)*%
X54840000Y-42840000D03*
%TO.P,U6,12,EN_N*%
%TO.N,unconnected-(U6-EN_N-Pad12)*%
X54340000Y-42840000D03*
D19*
%TO.P,U6,13,FAULT/OUT2*%
%TO.N,unconnected-(U6-FAULT{slash}OUT2-Pad13)*%
X53680000Y-43500000D03*
%TO.P,U6,14,FLGIN*%
%TO.N,unconnected-(U6-FLGIN-Pad14)*%
X53680000Y-44000000D03*
%TO.P,U6,15,GATE*%
%TO.N,unconnected-(U6-GATE-Pad15)*%
X53680000Y-44500000D03*
%TO.P,U6,16,VBUS*%
%TO.N,Net-(U4-VIN)*%
X53680000Y-45000000D03*
D20*
%TO.P,U6,17,GND*%
%TO.N,GND*%
X55090000Y-44250000D03*
%TD*%
D18*
%TO.P,U4,1,VIN*%
%TO.N,Net-(U4-VIN)*%
X53995000Y-40740000D03*
%TO.P,U4,2,D+*%
%TO.N,DP*%
X54495000Y-40740000D03*
%TO.P,U4,3,D-*%
%TO.N,DN*%
X54995000Y-40740000D03*
%TO.P,U4,4,CC1*%
%TO.N,CC1*%
X55495000Y-40740000D03*
%TO.P,U4,5,CC2*%
%TO.N,CC2*%
X55995000Y-40740000D03*
%TO.P,U4,6,SDA*%
%TO.N,SDA*%
X55995000Y-37920000D03*
%TO.P,U4,7,SCL*%
%TO.N,SCL*%
X55495000Y-37920000D03*
%TO.P,U4,8,VSET*%
%TO.N,unconnected-(U4-VSET-Pad8)*%
X54995000Y-37920000D03*
%TO.P,U4,9,ISET*%
%TO.N,unconnected-(U4-ISET-Pad9)*%
X54495000Y-37920000D03*
%TO.P,U4,10,GATE*%
%TO.N,unconnected-(U4-GATE-Pad10)*%
X53995000Y-37920000D03*
D21*
%TO.P,U4,11,GND*%
%TO.N,GND*%
X54995000Y-39330000D03*
%TD*%
D22*
%TO.P,U3,1,CC1DB*%
%TO.N,unconnected-(U3-CC1DB-Pad1)*%
X41940000Y-63050000D03*
%TO.P,U3,2,CC1*%
%TO.N,unconnected-(U3-CC1-Pad2)*%
X42440000Y-63050000D03*
%TO.P,U3,3,NC*%
%TO.N,unconnected-(U3-NC-Pad3)*%
X42940000Y-63050000D03*
%TO.P,U3,4,CC2*%
%TO.N,unconnected-(U3-CC2-Pad4)*%
X43440000Y-63050000D03*
%TO.P,U3,5,CC2DB*%
%TO.N,unconnected-(U3-CC2DB-Pad5)*%
X43940000Y-63050000D03*
%TO.P,U3,6,RESET*%
%TO.N,unconnected-(U3-RESET-Pad6)*%
X44440000Y-63050000D03*
D23*
%TO.P,U3,7,SCL*%
%TO.N,unconnected-(U3-SCL-Pad7)*%
X45190000Y-62300000D03*
%TO.P,U3,8,SDA*%
%TO.N,unconnected-(U3-SDA-Pad8)*%
X45190000Y-61800000D03*
%TO.P,U3,9,DISCH*%
%TO.N,unconnected-(U3-DISCH-Pad9)*%
X45190000Y-61300000D03*
%TO.P,U3,10,GND*%
%TO.N,unconnected-(U3-GND-Pad10)*%
X45190000Y-60800000D03*
%TO.P,U3,11,ATTACH*%
%TO.N,unconnected-(U3-ATTACH-Pad11)*%
X45190000Y-60300000D03*
%TO.P,U3,12,ADDR0*%
%TO.N,unconnected-(U3-ADDR0-Pad12)*%
X45190000Y-59800000D03*
D22*
%TO.P,U3,13,ADDR1*%
%TO.N,unconnected-(U3-ADDR1-Pad13)*%
X44440000Y-59050000D03*
%TO.P,U3,14,POWER_OK3*%
%TO.N,unconnected-(U3-POWER_OK3-Pad14)*%
X43940000Y-59050000D03*
%TO.P,U3,15,GPIO*%
%TO.N,unconnected-(U3-GPIO-Pad15)*%
X43440000Y-59050000D03*
%TO.P,U3,16,VBUS_EN_SNK*%
%TO.N,unconnected-(U3-VBUS_EN_SNK-Pad16)*%
X42940000Y-59050000D03*
%TO.P,U3,17,A_B_SIDE*%
%TO.N,unconnected-(U3-A_B_SIDE-Pad17)*%
X42440000Y-59050000D03*
%TO.P,U3,18,VBUS_VS_DISCH*%
%TO.N,unconnected-(U3-VBUS_VS_DISCH-Pad18)*%
X41940000Y-59050000D03*
D23*
%TO.P,U3,19,ALERT*%
%TO.N,unconnected-(U3-ALERT-Pad19)*%
X41190000Y-59800000D03*
%TO.P,U3,20,POWER_OK2*%
%TO.N,unconnected-(U3-POWER_OK2-Pad20)*%
X41190000Y-60300000D03*
%TO.P,U3,21,VREG_1V2*%
%TO.N,unconnected-(U3-VREG_1V2-Pad21)*%
X41190000Y-60800000D03*
%TO.P,U3,22,VSYS*%
%TO.N,unconnected-(U3-VSYS-Pad22)*%
X41190000Y-61300000D03*
%TO.P,U3,23,VREG_2V7*%
%TO.N,unconnected-(U3-VREG_2V7-Pad23)*%
X41190000Y-61800000D03*
%TO.P,U3,24,VDD*%
%TO.N,unconnected-(U3-VDD-Pad24)*%
X41190000Y-62300000D03*
D24*
%TO.P,U3,25,EP*%
%TO.N,unconnected-(U3-EP-Pad25)*%
X43200000Y-61050000D03*
%TD*%
D25*
%TO.P,U2,1,GND*%
%TO.N,unconnected-(U2-GND-Pad1)*%
X27835000Y-39175000D03*
%TO.P,U2,2,GND*%
%TO.N,unconnected-(U2-GND-Pad2)*%
X27835000Y-40445000D03*
%TO.P,U2,3,IO8*%
%TO.N,SDA*%
X27835000Y-41715000D03*
%TO.P,U2,4,IO18*%
%TO.N,unconnected-(U2-IO18-Pad4)*%
X27835000Y-42985000D03*
%TO.P,U2,5,IO14*%
%TO.N,unconnected-(U2-IO14-Pad5)*%
X27835000Y-44255000D03*
%TO.P,U2,6,IO13*%
%TO.N,unconnected-(U2-IO13-Pad6)*%
X27835000Y-45525000D03*
%TO.P,U2,7,IO12*%
%TO.N,unconnected-(U2-IO12-Pad7)*%
X27835000Y-46795000D03*
%TO.P,U2,8,IO7*%
%TO.N,unconnected-(U2-IO7-Pad8)*%
X27835000Y-48065000D03*
%TO.P,U2,9,IO6*%
%TO.N,unconnected-(U2-IO6-Pad9)*%
X27835000Y-49335000D03*
%TO.P,U2,10,IO9*%
%TO.N,SCL*%
X27835000Y-50605000D03*
%TO.P,U2,11,3V3*%
%TO.N,3V3*%
X27835000Y-51875000D03*
%TO.P,U2,12,GND*%
%TO.N,GND*%
X27835000Y-53145000D03*
%TO.P,U2,13*%
%TO.N,N/C*%
X27835000Y-54415000D03*
%TO.P,U2,14*%
X27835000Y-55685000D03*
D26*
%TO.P,U2,15*%
X29595000Y-56955000D03*
%TO.P,U2,16*%
X30865000Y-56955000D03*
%TO.P,U2,17*%
X32135000Y-56955000D03*
%TO.P,U2,18*%
X33405000Y-56955000D03*
%TO.P,U2,19*%
X34675000Y-56955000D03*
%TO.P,U2,20*%
X35955000Y-56955000D03*
%TO.P,U2,21*%
X37215000Y-56955000D03*
%TO.P,U2,22*%
X38485000Y-56955000D03*
%TO.P,U2,23*%
X39755000Y-56955000D03*
%TO.P,U2,24*%
X41035000Y-56955000D03*
%TO.P,U2,25*%
X42305000Y-56955000D03*
%TO.P,U2,26*%
X43575000Y-56925000D03*
D25*
%TO.P,U2,27*%
X45335000Y-55685000D03*
%TO.P,U2,28*%
X45335000Y-54415000D03*
%TO.P,U2,29*%
X45335000Y-53145000D03*
%TO.P,U2,30*%
X45335000Y-51875000D03*
%TO.P,U2,31*%
X45335000Y-50605000D03*
%TO.P,U2,32*%
X45335000Y-49335000D03*
%TO.P,U2,33*%
X45335000Y-48065000D03*
%TO.P,U2,34*%
X45335000Y-46795000D03*
%TO.P,U2,35*%
X45335000Y-45525000D03*
%TO.P,U2,36*%
X45335000Y-44255000D03*
%TO.P,U2,37*%
X45335000Y-42985000D03*
%TO.P,U2,38*%
X45335000Y-41715000D03*
%TO.P,U2,39*%
X45335000Y-40445000D03*
%TO.P,U2,40*%
X45335000Y-39175000D03*
D27*
%TO.P,U2,41*%
X35085000Y-46895000D03*
X33685000Y-46895000D03*
X36485000Y-46895000D03*
X36485000Y-45495000D03*
X35085000Y-45495000D03*
X33685000Y-45495000D03*
X33685000Y-48295000D03*
X35085000Y-48295000D03*
X36485000Y-48295000D03*
D28*
%TO.P,U2,*%
%TO.N,*%
X35085000Y-46195000D03*
X35085000Y-47595000D03*
X36485000Y-47595000D03*
X36485000Y-46195000D03*
X35785000Y-45495000D03*
X35785000Y-46895000D03*
X35785000Y-48295000D03*
X33685000Y-47595000D03*
X33685000Y-46195000D03*
X34385000Y-45495000D03*
X34385000Y-46895000D03*
X34385000Y-48295000D03*
%TD*%
D11*
%TO.P,Rtbb1,2*%
%TO.N,GND*%
X118000000Y-75500000D03*
%TO.P,Rtbb1,1*%
%TO.N,Net-(IC1-FB)*%
X117140000Y-75500000D03*
%TD*%
%TO.P,Rtfb1,2*%
%TO.N,Net-(IC1-FB)*%
X115500000Y-75500000D03*
%TO.P,Rtfb1,1*%
%TO.N,3V3*%
X114640000Y-75500000D03*
%TD*%
%TO.P,Rpg1,2,2*%
%TO.N,3V3*%
X110930000Y-78500000D03*
%TO.P,Rpg1,1,1*%
%TO.N,Net-(IC1-PG)*%
X110070000Y-78500000D03*
%TD*%
D29*
%TO.P,L2,2,2*%
%TO.N,Net-(IC1-SW)*%
X115710000Y-62000000D03*
%TO.P,L2,1,1*%
%TO.N,3V3*%
X105290000Y-62000000D03*
%TD*%
D30*
%TO.P,IC1,1,PGND*%
%TO.N,GND*%
X108288000Y-69595000D03*
%TO.P,IC1,2,VIN*%
%TO.N,Vbus*%
X108288000Y-70865000D03*
%TO.P,IC1,3,EN*%
%TO.N,Net-(IC1-EN)*%
X108288000Y-72135000D03*
%TO.P,IC1,4,PG*%
%TO.N,Net-(IC1-PG)*%
X108288000Y-73405000D03*
%TO.P,IC1,5,FB*%
%TO.N,Net-(IC1-FB)*%
X113712000Y-73405000D03*
%TO.P,IC1,6,VCC*%
%TO.N,Net-(IC1-VCC)*%
X113712000Y-72135000D03*
%TO.P,IC1,7,BOOT*%
%TO.N,Net-(IC1-BOOT)*%
X113712000Y-70865000D03*
%TO.P,IC1,8,SW*%
%TO.N,Net-(IC1-SW)*%
X113712000Y-69595000D03*
D31*
%TO.P,IC1,9,THERMAL*%
%TO.N,GND*%
X111000000Y-71500000D03*
%TD*%
D32*
%TO.P,D1,1,C*%
%TO.N,unconnected-(D1-C-Pad1)*%
X47630000Y-66660000D03*
%TO.P,D1,2,A*%
%TO.N,unconnected-(D1-A-Pad2)*%
X48430000Y-66660000D03*
%TD*%
D33*
%TO.P,Cout2,2,2*%
%TO.N,3V3*%
X93000000Y-64980000D03*
%TO.P,Cout2,1,1*%
%TO.N,GND*%
X93000000Y-68020000D03*
%TD*%
%TO.P,Cout1,2,2*%
%TO.N,3V3*%
X99000000Y-64980000D03*
%TO.P,Cout1,1,1*%
%TO.N,GND*%
X99000000Y-68020000D03*
%TD*%
D34*
%TO.P,Cboot1,2,2*%
%TO.N,Net-(IC1-BOOT)*%
X116000000Y-69450000D03*
%TO.P,Cboot1,1,1*%
%TO.N,Net-(IC1-SW)*%
X116000000Y-70550000D03*
%TD*%
D35*
%TO.P,Cvcc1,2,2*%
%TO.N,Net-(IC1-VCC)*%
X118280000Y-71990000D03*
%TO.P,Cvcc1,1,1*%
%TO.N,GND*%
X119680000Y-71990000D03*
%TD*%
D36*
%TO.P,Cinx1,2*%
%TO.N,GND*%
X104000000Y-68525000D03*
%TO.P,Cinx1,1*%
%TO.N,Vbus*%
X104000000Y-71475000D03*
%TD*%
D33*
%TO.P,Cin1,1,1*%
%TO.N,Vbus*%
X99500000Y-76020000D03*
%TO.P,Cin1,2,2*%
%TO.N,GND*%
X99500000Y-72980000D03*
%TD*%
M02*
