M48
; DRILL file {KiCad 8.0.0} date 2024-03-08T03:35:26+0100
; FORMAT={-:-/ absolute / inch / decimal}
; #@! TF.CreationDate,2024-03-08T03:35:26+01:00
; #@! TF.GenerationSoftware,Kicad,Pcbnew,8.0.0
; #@! TF.FileFunction,Plated,1,2,PTH
FMAT,2
INCH
; #@! TA.AperFunction,Plated,PTH,ComponentDrill
T1C0.0098
; #@! TA.AperFunction,Plated,PTH,ComponentDrill
T2C0.0236
; #@! TA.AperFunction,Plated,PTH,ComponentDrill
T3C0.0256
%
G90
G05
T1
X1.3262Y-1.8187
X1.3262Y-1.8738
X1.3537Y-1.7911
X1.3537Y-1.8463
X1.3537Y-1.9014
X1.3813Y-1.8187
X1.3813Y-1.8738
X1.4089Y-1.7911
X1.4089Y-1.8463
X1.4089Y-1.9014
X1.4364Y-1.8187
X1.4364Y-1.8738
T3
X1.9295Y-2.0533
X2.1571Y-2.0533
T2
G00X1.8732Y-2.012
M15
G01X1.8732Y-2.0553
M16
G05
G00X1.8732Y-2.1825
M15
G01X1.8732Y-2.214
M16
G05
G00X2.2134Y-2.012
M15
G01X2.2134Y-2.0553
M16
G05
G00X2.2134Y-2.1825
M15
G01X2.2134Y-2.214
M16
G05
M30
