%TF.GenerationSoftware,KiCad,Pcbnew,8.0.0*%
%TF.CreationDate,2024-03-08T03:35:26+01:00*%
%TF.ProjectId,pd65hotplate_esp32,70643635-686f-4747-906c-6174655f6573,rev?*%
%TF.SameCoordinates,Original*%
%TF.FileFunction,Soldermask,Top*%
%TF.FilePolarity,Negative*%
%FSLAX46Y46*%
G04 Gerber Fmt 4.6, Leading zero omitted, Abs format (unit mm)*
G04 Created by KiCad (PCBNEW 8.0.0) date 2024-03-08 03:35:26*
%MOMM*%
%LPD*%
G01*
G04 APERTURE LIST*
G04 Aperture macros list*
%AMRoundRect*
0 Rectangle with rounded corners*
0 $1 Rounding radius*
0 $2 $3 $4 $5 $6 $7 $8 $9 X,Y pos of 4 corners*
0 Add a 4 corners polygon primitive as box body*
4,1,4,$2,$3,$4,$5,$6,$7,$8,$9,$2,$3,0*
0 Add four circle primitives for the rounded corners*
1,1,$1+$1,$2,$3*
1,1,$1+$1,$4,$5*
1,1,$1+$1,$6,$7*
1,1,$1+$1,$8,$9*
0 Add four rect primitives between the rounded corners*
20,1,$1+$1,$2,$3,$4,$5,0*
20,1,$1+$1,$4,$5,$6,$7,0*
20,1,$1+$1,$6,$7,$8,$9,0*
20,1,$1+$1,$8,$9,$2,$3,0*%
G04 Aperture macros list end*
%ADD10RoundRect,0.237500X-0.250000X-0.237500X0.250000X-0.237500X0.250000X0.237500X-0.250000X0.237500X0*%
%ADD11R,0.570000X0.540000*%
%ADD12RoundRect,0.250000X-0.337500X-0.475000X0.337500X-0.475000X0.337500X0.475000X-0.337500X0.475000X0*%
%ADD13RoundRect,0.237500X-0.300000X-0.237500X0.300000X-0.237500X0.300000X0.237500X-0.300000X0.237500X0*%
%ADD14R,0.300000X1.150000*%
%ADD15O,1.000000X1.800000*%
%ADD16O,1.000000X2.100000*%
%ADD17C,0.650000*%
%ADD18R,0.280000X0.660000*%
%ADD19R,0.660000X0.280000*%
%ADD20R,1.750000X1.750000*%
%ADD21R,2.500000X1.500000*%
%ADD22O,0.280000X0.700000*%
%ADD23O,0.700000X0.280000*%
%ADD24R,2.800000X2.800000*%
%ADD25R,1.500000X0.900000*%
%ADD26R,0.900000X1.500000*%
%ADD27R,0.900000X0.900000*%
%ADD28C,0.400000*%
%ADD29R,3.000000X3.000000*%
%ADD30R,1.525000X0.650000*%
%ADD31R,2.400000X3.100000*%
%ADD32R,0.500000X0.600000*%
%ADD33R,2.700000X1.630000*%
%ADD34R,0.540000X0.790000*%
%ADD35R,0.800000X0.900000*%
%ADD36RoundRect,0.250000X0.650000X-0.325000X0.650000X0.325000X-0.650000X0.325000X-0.650000X-0.325000X0*%
G04 APERTURE END LIST*
D10*
%TO.C,Rent1*%
X105657500Y-76000000D03*
X107482500Y-76000000D03*
%TD*%
D11*
%TO.C,Renb1*%
X110000000Y-76000000D03*
X109140000Y-76000000D03*
%TD*%
D10*
%TO.C,R1*%
X81175000Y-88000000D03*
X83000000Y-88000000D03*
%TD*%
D12*
%TO.C,C7*%
X113962500Y-78500000D03*
X116037500Y-78500000D03*
%TD*%
D13*
%TO.C,C3*%
X81225000Y-85490000D03*
X82950000Y-85490000D03*
%TD*%
D14*
%TO.C,USB1*%
X55250000Y-51095000D03*
X54950000Y-51095000D03*
X54450000Y-51095000D03*
X54150000Y-51095000D03*
X53650000Y-51095000D03*
X53150000Y-51095000D03*
X52650000Y-51095000D03*
X52150000Y-51095000D03*
X51650000Y-51095000D03*
X51150000Y-51095000D03*
X50650000Y-51095000D03*
X50150000Y-51095000D03*
X49650000Y-51095000D03*
X49350000Y-51095000D03*
X48850000Y-51095000D03*
X48550000Y-51095000D03*
D15*
X56220000Y-55835000D03*
D16*
X56220000Y-51655000D03*
D15*
X47580000Y-55835000D03*
D16*
X47580000Y-51655000D03*
D17*
X49010000Y-52155000D03*
X54790000Y-52155000D03*
%TD*%
D18*
%TO.C,U6*%
X54340000Y-45660000D03*
X54840000Y-45660000D03*
X55340000Y-45660000D03*
X55840000Y-45660000D03*
D19*
X56500000Y-45000000D03*
X56500000Y-44500000D03*
X56500000Y-44000000D03*
X56500000Y-43500000D03*
D18*
X55840000Y-42840000D03*
X55340000Y-42840000D03*
X54840000Y-42840000D03*
X54340000Y-42840000D03*
D19*
X53680000Y-43500000D03*
X53680000Y-44000000D03*
X53680000Y-44500000D03*
X53680000Y-45000000D03*
D20*
X55090000Y-44250000D03*
%TD*%
D18*
%TO.C,U4*%
X53995000Y-40740000D03*
X54495000Y-40740000D03*
X54995000Y-40740000D03*
X55495000Y-40740000D03*
X55995000Y-40740000D03*
X55995000Y-37920000D03*
X55495000Y-37920000D03*
X54995000Y-37920000D03*
X54495000Y-37920000D03*
X53995000Y-37920000D03*
D21*
X54995000Y-39330000D03*
%TD*%
D22*
%TO.C,U3*%
X41940000Y-63050000D03*
X42440000Y-63050000D03*
X42940000Y-63050000D03*
X43440000Y-63050000D03*
X43940000Y-63050000D03*
X44440000Y-63050000D03*
D23*
X45190000Y-62300000D03*
X45190000Y-61800000D03*
X45190000Y-61300000D03*
X45190000Y-60800000D03*
X45190000Y-60300000D03*
X45190000Y-59800000D03*
D22*
X44440000Y-59050000D03*
X43940000Y-59050000D03*
X43440000Y-59050000D03*
X42940000Y-59050000D03*
X42440000Y-59050000D03*
X41940000Y-59050000D03*
D23*
X41190000Y-59800000D03*
X41190000Y-60300000D03*
X41190000Y-60800000D03*
X41190000Y-61300000D03*
X41190000Y-61800000D03*
X41190000Y-62300000D03*
D24*
X43200000Y-61050000D03*
%TD*%
D25*
%TO.C,U2*%
X27835000Y-39175000D03*
X27835000Y-40445000D03*
X27835000Y-41715000D03*
X27835000Y-42985000D03*
X27835000Y-44255000D03*
X27835000Y-45525000D03*
X27835000Y-46795000D03*
X27835000Y-48065000D03*
X27835000Y-49335000D03*
X27835000Y-50605000D03*
X27835000Y-51875000D03*
X27835000Y-53145000D03*
X27835000Y-54415000D03*
X27835000Y-55685000D03*
D26*
X29595000Y-56955000D03*
X30865000Y-56955000D03*
X32135000Y-56955000D03*
X33405000Y-56955000D03*
X34675000Y-56955000D03*
X35955000Y-56955000D03*
X37215000Y-56955000D03*
X38485000Y-56955000D03*
X39755000Y-56955000D03*
X41035000Y-56955000D03*
X42305000Y-56955000D03*
X43575000Y-56925000D03*
D25*
X45335000Y-55685000D03*
X45335000Y-54415000D03*
X45335000Y-53145000D03*
X45335000Y-51875000D03*
X45335000Y-50605000D03*
X45335000Y-49335000D03*
X45335000Y-48065000D03*
X45335000Y-46795000D03*
X45335000Y-45525000D03*
X45335000Y-44255000D03*
X45335000Y-42985000D03*
X45335000Y-41715000D03*
X45335000Y-40445000D03*
X45335000Y-39175000D03*
D27*
X35085000Y-46895000D03*
X33685000Y-46895000D03*
X36485000Y-46895000D03*
X36485000Y-45495000D03*
X35085000Y-45495000D03*
X33685000Y-45495000D03*
X33685000Y-48295000D03*
X35085000Y-48295000D03*
X36485000Y-48295000D03*
D28*
X35085000Y-46195000D03*
X35085000Y-47595000D03*
X36485000Y-47595000D03*
X36485000Y-46195000D03*
X35785000Y-45495000D03*
X35785000Y-46895000D03*
X35785000Y-48295000D03*
X33685000Y-47595000D03*
X33685000Y-46195000D03*
X34385000Y-45495000D03*
X34385000Y-46895000D03*
X34385000Y-48295000D03*
%TD*%
D11*
%TO.C,Rtbb1*%
X118000000Y-75500000D03*
X117140000Y-75500000D03*
%TD*%
%TO.C,Rtfb1*%
X115500000Y-75500000D03*
X114640000Y-75500000D03*
%TD*%
%TO.C,Rpg1*%
X110930000Y-78500000D03*
X110070000Y-78500000D03*
%TD*%
D29*
%TO.C,L2*%
X115710000Y-62000000D03*
X105290000Y-62000000D03*
%TD*%
D30*
%TO.C,IC1*%
X108288000Y-69595000D03*
X108288000Y-70865000D03*
X108288000Y-72135000D03*
X108288000Y-73405000D03*
X113712000Y-73405000D03*
X113712000Y-72135000D03*
X113712000Y-70865000D03*
X113712000Y-69595000D03*
D31*
X111000000Y-71500000D03*
%TD*%
D32*
%TO.C,D1*%
X47630000Y-66660000D03*
X48430000Y-66660000D03*
%TD*%
D33*
%TO.C,Cout2*%
X93000000Y-64980000D03*
X93000000Y-68020000D03*
%TD*%
%TO.C,Cout1*%
X99000000Y-64980000D03*
X99000000Y-68020000D03*
%TD*%
D34*
%TO.C,Cboot1*%
X116000000Y-69450000D03*
X116000000Y-70550000D03*
%TD*%
D35*
%TO.C,Cvcc1*%
X118280000Y-71990000D03*
X119680000Y-71990000D03*
%TD*%
D36*
%TO.C,Cinx1*%
X104000000Y-68525000D03*
X104000000Y-71475000D03*
%TD*%
D33*
%TO.C,Cin1*%
X99500000Y-76020000D03*
X99500000Y-72980000D03*
%TD*%
M02*
